<svg xmlns="http://www.w3.org/2000/svg" width="928" height="332pt" viewBox="0 0 696.23 332">
    <g class="graph">
        <path fill="#fff" d="M0 332V0h696.23v332H0z"/>
        <g class="node" transform="translate(4 328)">
            <ellipse cx="192.06" cy="-306" fill="none" stroke="#000" rx="76.94" ry="18"/>
            <text x="192.06" y="-300.95" font-family="Times,serif" font-size="14" text-anchor="middle">:feature:inventory</text>
        </g>
        <g class="node" transform="translate(4 328)">
            <ellipse cx="192.06" cy="-234" fill="none" stroke="#000" rx="39.07" ry="18"/>
            <text x="192.06" y="-228.95" font-family="Times,serif" font-size="14" text-anchor="middle">:core:ui</text>
        </g>
        <g stroke="#000" class="edge">
            <path fill="none" d="M196.06 40.3v24.16"/>
            <path d="m199.56 64.38-3.5 10-3.5-10h7z"/>
        </g>
        <g class="node" transform="translate(4 328)">
            <ellipse cx="82.06" cy="-162" fill="none" stroke="#000" rx="82.06" ry="18"/>
            <text x="82.06" y="-156.95" font-family="Times,serif" font-size="14" text-anchor="middle">:core:designsystem</text>
        </g>
        <g stroke="#000" class="edge">
            <path fill="none" d="M179.93 39.7c-9.6 10.2-21.82 23.67-31.87 36.3-16.05 20.17-32.67 44.22-44.65 62.23"/>
            <path d="m106.35 140.12-8.42 6.42 2.58-10.27 5.84 3.85z"/>
        </g>
        <g class="node" transform="translate(4 328)">
            <ellipse cx="416.06" cy="-234" fill="none" stroke="#000" rx="47.26" ry="18"/>
            <text x="416.06" y="-228.95" font-family="Times,serif" font-size="14" text-anchor="middle">:core:data</text>
        </g>
        <g stroke="red" stroke-width="2" class="edge">
            <path fill="none" d="M240.85 37c38.43 12.01 93.61 29.25 132.57 41.42"/>
            <path fill="red" d="m372.81 74.57 8.5 6.32-10.59.36 2.09-6.68z"/>
        </g>
        <g stroke="#000" class="edge">
            <path fill="none" d="M173.8 109.17c-15.15 9.64-35.51 22.59-52.8 33.6"/>
            <path d="m123.35 145.42-10.31 2.41 6.55-8.32 3.76 5.91z"/>
        </g>
        <g class="node" transform="translate(4 328)">
            <ellipse cx="285.06" cy="-162" fill="none" stroke="#000" rx="64.66" ry="18"/>
            <text x="285.06" y="-156.95" font-family="Times,serif" font-size="14" text-anchor="middle">:core:analytics</text>
        </g>
        <g stroke="#000" class="edge">
            <path fill="none" d="M215.78 109.85c12.42 9.34 28.71 21.61 42.78 32.19"/>
            <path d="m260.32 138.99 5.89 8.81-10.1-3.22 4.21-5.59z"/>
        </g>
        <g class="node" transform="translate(4 328)">
            <ellipse cx="288.06" cy="-18" fill="none" stroke="#000" rx="55.45" ry="18"/>
            <text x="288.06" y="-12.95" font-family="Times,serif" font-size="14" text-anchor="middle">:core:model</text>
        </g>
        <g stroke="#000" class="edge">
            <path fill="none" d="M196.57 112.28c1.62 30.96 8.38 97.04 36.49 143.72 6.85 11.38 16.92 21.71 26.8 30.16"/>
            <path d="m262.03 283.42 5.58 9.01-9.97-3.57 4.39-5.44z"/>
        </g>
        <g class="node" transform="translate(4 328)">
            <ellipse cx="298.06" cy="-90" fill="none" stroke="#000" rx="60.05" ry="18"/>
            <text x="298.06" y="-84.95" font-family="Times,serif" font-size="14" text-anchor="middle">:core:domain</text>
        </g>
        <g stroke="#000" class="edge">
            <path fill="none" d="M411.08 112.06c-10.27 18.68-28.23 49.03-48.02 71.94-9.15 10.59-20.43 20.98-30.8 29.71"/>
            <path d="m334.59 216.33-9.95 3.63 5.51-9.05 4.44 5.42z"/>
        </g>
        <g class="node" transform="translate(4 328)">
            <ellipse cx="623.06" cy="-18" fill="none" stroke="#000" rx="65.17" ry="18"/>
            <text x="623.06" y="-12.95" font-family="Times,serif" font-size="14" text-anchor="middle">:core:common</text>
        </g>
        <g stroke="#000" class="edge">
            <path fill="none" d="M465.82 99.18c59.19 6.46 157.32 21.13 179.24 48.82 30.25 38.2 11.31 98.44-4.09 133.38"/>
            <path d="m644.17 282.8-7.38 7.61 1.03-10.55 6.35 2.94z"/>
        </g>
        <g class="node" transform="translate(4 328)">
            <ellipse cx="451.06" cy="-90" fill="none" stroke="#000" rx="65.17" ry="18"/>
            <text x="451.06" y="-84.95" font-family="Times,serif" font-size="14" text-anchor="middle">:core:datastore</text>
        </g>
        <g stroke="#000" class="edge">
            <path fill="none" d="M423.28 112.16c3.49 18 9.4 47.05 15.78 71.84 2.12 8.22 4.68 17.09 7.12 25.16"/>
            <path d="m449.45 207.88-.39 10.59-6.3-8.52 6.69-2.07z"/>
        </g>
        <g class="node" transform="translate(4 328)">
            <ellipse cx="538.06" cy="-162" fill="none" stroke="#000" rx="93.83" ry="18"/>
            <text x="538.06" y="-156.95" font-family="Times,serif" font-size="14" text-anchor="middle">:core:firebase-services</text>
        </g>
        <g stroke="red" stroke-width="2" class="edge">
            <path fill="none" d="M445.34 109.5c16.8 9.64 39.18 22.49 58.19 33.39"/>
            <path fill="red" d="m503.84 139.03 6.93 8.02-10.42-1.95 3.49-6.07z"/>
        </g>
        <g stroke="#000" class="edge">
            <path fill="none" d="M299.59 256.3c-1.06 7.38-2.31 16.18-3.49 24.45"/>
            <path d="m299.6 280.99-4.88 9.41-2.05-10.4 6.93.99z"/>
        </g>
        <g stroke="red" stroke-width="2" class="edge">
            <path fill="none" d="M420.89 253.67c-25.05 10.76-59.24 25.44-86.1 36.98"/>
            <path fill="red" d="m337.87 293.14-10.57.73 7.81-7.17 2.76 6.44z"/>
        </g>
        <g stroke="#000" class="edge">
            <path fill="none" d="M490.7 253.5c26.17 10.66 61.96 25.22 90.3 36.76"/>
            <path d="m582.12 286.93 7.95 7.01-10.59-.52 2.64-6.49z"/>
        </g>
        <g class="node" transform="translate(4 328)">
            <ellipse cx="451.06" cy="-18" fill="none" stroke="#000" rx="89.23" ry="18"/>
            <text x="451.06" y="-12.95" font-family="Times,serif" font-size="14" text-anchor="middle">:core:datastore_proto</text>
        </g>
        <g stroke="#000" class="edge">
            <path fill="none" d="M455.06 256.3v24.16"/>
            <path d="m458.56 280.38-3.5 10-3.5-10h7z"/>
        </g>
        <g stroke="#000" class="edge">
            <path fill="none" d="M552.31 184.13c14.55 24.31 41.34 69.05 58.58 97.86"/>
            <path d="m613.86 280.13 2.13 10.38-8.14-6.78 6.01-3.6z"/>
        </g>
        <g stroke="red" stroke-width="2" class="edge">
            <path fill="none" d="M521 183.95c-10.98 8.83-24.59 19.78-36.58 29.43"/>
            <path fill="red" d="m487.97 215.01-9.99 3.54 5.6-8.99 4.39 5.45z"/>
        </g>
    </g>
</svg>
