<svg xmlns="http://www.w3.org/2000/svg" width="781pt" height="404pt" viewBox="0 0 781.23 404">
    <g class="graph">
        <path fill="#fff" d="M0 404V0h781.23v404H0z"/>
        <g class="node" transform="translate(4 400)">
            <ellipse cx="302.06" cy="-378" fill="none" stroke="#000" rx="64.15" ry="18"/>
            <text x="302.06" y="-372.95" font-family="Times,serif" font-size="14" text-anchor="middle">:feature:signin</text>
        </g>
        <g class="node" transform="translate(4 400)">
            <ellipse cx="247.06" cy="-234" fill="none" stroke="#000" rx="39.07" ry="18"/>
            <text x="247.06" y="-228.95" font-family="Times,serif" font-size="14" text-anchor="middle">:core:ui</text>
        </g>
        <g stroke="#000" class="edge">
            <path fill="none" d="M324.66 39.46c18.18 18.17 41.13 48.06 26.4 72.54-12.16 20.21-34.92 33.13-55.65 41.14"/>
            <path d="m296.84 156.34-10.59.05 8.25-6.64 2.34 6.59z"/>
        </g>
        <g class="node" transform="translate(4 400)">
            <ellipse cx="82.06" cy="-162" fill="none" stroke="#000" rx="82.06" ry="18"/>
            <text x="82.06" y="-156.95" font-family="Times,serif" font-size="14" text-anchor="middle">:core:designsystem</text>
        </g>
        <g stroke="#000" class="edge">
            <path fill="none" d="M244.53 27.42C207.61 33.22 162.3 46.37 133.06 76c-35.37 35.84-44.4 96.74-46.54 132.48"/>
            <path d="m90.04 208.21-3.94 9.84-3.06-10.15 7 .31z"/>
        </g>
        <g class="node" transform="translate(4 400)">
            <ellipse cx="445.06" cy="-234" fill="none" stroke="#000" rx="47.26" ry="18"/>
            <text x="445.06" y="-228.95" font-family="Times,serif" font-size="14" text-anchor="middle">:core:data</text>
        </g>
        <g stroke="#000" class="edge">
            <path fill="none" d="M326.44 39.33c12.38 10.18 28.3 23.76 41.62 36.67 21.17 20.53 43.62 45.47 59.5 63.73"/>
            <path d="m430.14 137.35 3.88 9.86-9.18-5.28 5.3-4.58z"/>
        </g>
        <g class="node" transform="translate(4 400)">
            <ellipse cx="238.06" cy="-306" fill="none" stroke="#000" rx="99.97" ry="18"/>
            <text x="238.06" y="-300.95" font-family="Times,serif" font-size="14" text-anchor="middle">:feature:login-employee</text>
        </g>
        <g stroke="red" stroke-width="2" class="edge">
            <path fill="none" d="M290.57 39.95c-7.63 8.34-16.98 18.56-25.42 27.8"/>
            <path fill="red" d="m268.78 68.96-9.33 5.02 4.17-9.75 5.16 4.73z"/>
        </g>
        <g stroke="#000" class="edge">
            <path fill="none" d="M223.07 178.87c-24.65 10.46-61.05 25.9-90.13 38.24"/>
            <path d="m134.55 220.23-10.57.68 7.84-7.13 2.73 6.45z"/>
        </g>
        <g class="node" transform="translate(4 400)">
            <ellipse cx="247.06" cy="-162" fill="none" stroke="#000" rx="64.66" ry="18"/>
            <text x="247.06" y="-156.95" font-family="Times,serif" font-size="14" text-anchor="middle">:core:analytics</text>
        </g>
        <g stroke="#000" class="edge">
            <path fill="none" d="M251.06 184.3v24.16"/>
            <path d="m254.56 208.38-3.5 10-3.5-10h7z"/>
        </g>
        <g class="node" transform="translate(4 400)">
            <ellipse cx="373.06" cy="-18" fill="none" stroke="#000" rx="55.45" ry="18"/>
            <text x="373.06" y="-12.95" font-family="Times,serif" font-size="14" text-anchor="middle">:core:model</text>
        </g>
        <g stroke="#000" class="edge">
            <path fill="none" d="M276.95 179.99c15.93 9.19 35.62 22.91 48.11 40.01 7.99 10.95 31.49 89.8 43.98 132.95"/>
            <path d="m372.36 351.81-.6 10.58-6.13-8.64 6.73-1.94z"/>
        </g>
        <g class="node" transform="translate(4 400)">
            <ellipse cx="428.06" cy="-90" fill="none" stroke="#000" rx="60.05" ry="18"/>
            <text x="428.06" y="-84.95" font-family="Times,serif" font-size="14" text-anchor="middle">:core:domain</text>
        </g>
        <g stroke="#000" class="edge">
            <path fill="none" d="M446.98 184.41c-2.88 23.98-8.08 67.45-11.52 96.17"/>
            <path d="m438.95 280.87-4.66 9.52-2.29-10.35 6.95.83z"/>
        </g>
        <g class="node" transform="translate(4 400)">
            <ellipse cx="708.06" cy="-18" fill="none" stroke="#000" rx="65.17" ry="18"/>
            <text x="708.06" y="-12.95" font-family="Times,serif" font-size="14" text-anchor="middle">:core:common</text>
        </g>
        <g stroke="#000" class="edge">
            <path fill="none" d="M495.19 170.73c63.19 6.12 171.83 20.59 197.87 49.27 32.72 36.04 29.9 96.87 24.63 132.54"/>
            <path d="m721.19 352.81-5.09 9.3-1.81-10.44 6.9 1.14z"/>
        </g>
        <g class="node" transform="translate(4 400)">
            <ellipse cx="571.06" cy="-90" fill="none" stroke="#000" rx="65.17" ry="18"/>
            <text x="571.06" y="-84.95" font-family="Times,serif" font-size="14" text-anchor="middle">:core:datastore</text>
        </g>
        <g stroke="#000" class="edge">
            <path fill="none" d="M452.97 184.12c5.11 19.29 15.67 50.71 34.09 71.88 11.81 13.57 27.98 24.68 43.24 33.16"/>
            <path d="m531.59 285.88 7.22 7.76-10.48-1.57 3.26-6.19z"/>
        </g>
        <g class="node" transform="translate(4 400)">
            <ellipse cx="586.06" cy="-162" fill="none" stroke="#000" rx="93.83" ry="18"/>
            <text x="586.06" y="-156.95" font-family="Times,serif" font-size="14" text-anchor="middle">:core:firebase-services</text>
        </g>
        <g stroke="red" stroke-width="2" class="edge">
            <path fill="none" d="m476.92 180.83 70.27 34.89"/>
            <path fill="red" d="m547.2 211.81 7.4 7.59-10.51-1.32 3.11-6.27z"/>
        </g>
        <g stroke="#000" class="edge">
            <path fill="none" d="M244.28 112.3c.95 7.38 2.08 16.18 3.15 24.45"/>
            <path d="m250.86 136.03-2.19 10.36-4.75-9.47 6.94-.89z"/>
        </g>
        <g stroke="#000" class="edge">
            <path fill="none" d="M223.24 112.13c-27.55 25.08-79.01 71.92-110.47 100.56"/>
            <path d="m115.33 215.09-9.75 4.14 5.04-9.32 4.71 5.18z"/>
        </g>
        <g stroke="red" stroke-width="2" class="edge">
            <path fill="none" d="M287.74 110.45c34.49 11.66 81.59 27.59 115.99 39.22"/>
            <path fill="red" d="m403.2 145.8 8.35 6.52-10.59.11 2.24-6.63z"/>
        </g>
        <g stroke="#000" class="edge">
            <path fill="none" d="M418.75 327.95c-6.42 8.16-14.26 18.14-21.4 27.23"/>
            <path d="m400.12 357.32-8.93 5.7 3.42-10.02 5.51 4.32z"/>
        </g>
        <g stroke="red" stroke-width="2" class="edge">
            <path fill="none" d="M535.94 324.83c-32.13 11.36-77.75 27.49-111.87 39.55"/>
            <path fill="red" d="m426.88 367.1-10.6.03 8.26-6.63 2.34 6.6z"/>
        </g>
        <g stroke="#000" class="edge">
            <path fill="none" d="m605.13 326.36 66.85 34.16"/>
            <path d="m673.4 357.32 7.32 7.67-10.5-1.44 3.18-6.23z"/>
        </g>
        <g class="node" transform="translate(4 400)">
            <ellipse cx="536.06" cy="-18" fill="none" stroke="#000" rx="89.23" ry="18"/>
            <text x="536.06" y="-12.95" font-family="Times,serif" font-size="14" text-anchor="middle">:core:datastore_proto</text>
        </g>
        <g stroke="#000" class="edge">
            <path fill="none" d="M566.41 328.3c-3.82 7.63-8.39 16.78-12.65 25.3"/>
            <path d="m556.89 355.16-7.6 7.38 1.34-10.51 6.26 3.13z"/>
        </g>
        <g stroke="#000" class="edge">
            <path fill="none" d="M611.05 255.86c11.77 9.93 26.38 23.08 38.01 36.14 17.42 19.56 34.41 43.98 46.35 62.29"/>
            <path d="m698.22 352.18 2.46 10.31-8.35-6.52 5.89-3.79z"/>
        </g>
        <g stroke="red" stroke-width="2" class="edge">
            <path fill="none" d="M586.35 256.3c-1.58 7.38-3.46 16.18-5.24 24.45"/>
            <path fill="red" d="m584.88 279.89-5.52 9.05-1.33-10.52 6.85 1.47z"/>
        </g>
    </g>
</svg>
