<svg xmlns="http://www.w3.org/2000/svg" width="764" height="260pt" viewBox="0 0 573.23 260">
    <g class="graph">
        <path fill="#fff" d="M0 260V0h573.23v260H0z"/>
        <g class="node" transform="translate(4 256)">
            <ellipse cx="247.06" cy="-234" fill="none" stroke="#000" rx="53.91" ry="18"/>
            <text x="247.06" y="-228.95" font-family="Times,serif" font-size="14" text-anchor="middle">:feature:bill</text>
        </g>
        <g class="node" transform="translate(4 256)">
            <ellipse cx="247.06" cy="-162" fill="none" stroke="#000" rx="39.07" ry="18"/>
            <text x="247.06" y="-156.95" font-family="Times,serif" font-size="14" text-anchor="middle">:core:ui</text>
        </g>
        <g stroke="#000" class="edge">
            <path fill="none" d="M251.06 40.3v24.16"/>
            <path d="m254.56 64.38-3.5 10-3.5-10h7z"/>
        </g>
        <g class="node" transform="translate(4 256)">
            <ellipse cx="82.06" cy="-90" fill="none" stroke="#000" rx="82.06" ry="18"/>
            <text x="82.06" y="-84.95" font-family="Times,serif" font-size="14" text-anchor="middle">:core:designsystem</text>
        </g>
        <g stroke="#000" class="edge">
            <path fill="none" d="M232.13 39.29c-28.98 24.94-84.53 72.75-118.15 101.68"/>
            <path d="m116.54 143.39-9.86 3.87 5.29-9.18 4.57 5.31z"/>
        </g>
        <g class="node" transform="translate(4 256)">
            <ellipse cx="378.06" cy="-162" fill="none" stroke="#000" rx="60.05" ry="18"/>
            <text x="378.06" y="-156.95" font-family="Times,serif" font-size="14" text-anchor="middle">:core:domain</text>
        </g>
        <g stroke="red" stroke-width="2" class="edge">
            <path fill="none" d="M278.84 37.85c18.89 10.09 44.13 23.57 64.92 34.69"/>
            <path fill="red" d="m344.03 68.71 7.17 7.8-10.47-1.63 3.3-6.17z"/>
        </g>
        <g stroke="#000" class="edge">
            <path fill="none" d="M223.07 106.87c-24.65 10.46-61.05 25.9-90.13 38.24"/>
            <path d="m134.55 148.23-10.57.68 7.84-7.13 2.73 6.45z"/>
        </g>
        <g class="node" transform="translate(4 256)">
            <ellipse cx="247.06" cy="-90" fill="none" stroke="#000" rx="64.66" ry="18"/>
            <text x="247.06" y="-84.95" font-family="Times,serif" font-size="14" text-anchor="middle">:core:analytics</text>
        </g>
        <g stroke="#000" class="edge">
            <path fill="none" d="M251.06 112.3v24.16"/>
            <path d="m254.56 136.38-3.5 10-3.5-10h7z"/>
        </g>
        <g class="node" transform="translate(4 256)">
            <ellipse cx="361.06" cy="-18" fill="none" stroke="#000" rx="55.45" ry="18"/>
            <text x="361.06" y="-12.95" font-family="Times,serif" font-size="14" text-anchor="middle">:core:model</text>
        </g>
        <g stroke="#000" class="edge">
            <path fill="none" d="M275.97 108.26c15.74 9.39 35.58 23.23 49.09 39.74 14.75 18.02 25.19 42.35 31.7 61.02"/>
            <path d="m360.03 207.77-.2 10.6-6.44-8.41 6.64-2.19z"/>
        </g>
        <g stroke="#000" class="edge">
            <path fill="none" d="M379.98 112.41c-2.88 23.98-8.08 67.45-11.52 96.17"/>
            <path d="m371.95 208.87-4.66 9.52-2.29-10.35 6.95.83z"/>
        </g>
        <g class="node" transform="translate(4 256)">
            <ellipse cx="484.06" cy="-90" fill="none" stroke="#000" rx="77.97" ry="18"/>
            <text x="484.06" y="-84.95" font-family="Times,serif" font-size="14" text-anchor="middle">:core:notifications</text>
        </g>
        <g stroke="red" stroke-width="2" class="edge">
            <path fill="none" d="m406.11 110.88 47.92 31.65"/>
            <path fill="red" d="m454.42 138.59 6.42 8.43-10.27-2.59 3.85-5.84z"/>
        </g>
        <g stroke="red" stroke-width="2" class="edge">
            <path fill="none" d="M459.84 183.06c-17.35 9.88-39.77 22.63-58.44 33.26"/>
            <path fill="red" d="m404.52 218.57-10.42 1.91 6.96-7.99 3.46 6.08z"/>
        </g>
        <g class="node" transform="translate(4 256)">
            <ellipse cx="500.06" cy="-18" fill="none" stroke="#000" rx="65.17" ry="18"/>
            <text x="500.06" y="-12.95" font-family="Times,serif" font-size="14" text-anchor="middle">:core:common</text>
        </g>
        <g stroke="#000" class="edge">
            <path fill="none" d="M492.01 184.3c1.69 7.38 3.7 16.18 5.59 24.45"/>
            <path d="m501 207.89-1.19 10.53-5.64-8.97 6.83-1.56z"/>
        </g>
    </g>
</svg>
