<svg xmlns="http://www.w3.org/2000/svg" width="764" height="332pt" viewBox="0 0 572.83 332">
    <g class="graph">
        <path fill="#fff" d="M0 332V0h572.83v332H0z"/>
        <g class="node" transform="translate(4 328)">
            <ellipse cx="263.66" cy="-306" fill="none" stroke="#000" rx="64.15" ry="18"/>
            <text x="263.66" y="-300.95" font-family="Times,serif" font-size="14" text-anchor="middle">:feature:signin</text>
        </g>
        <g class="node" transform="translate(4 328)">
            <ellipse cx="157.66" cy="-162" fill="none" stroke="#000" rx="39.07" ry="18"/>
            <text x="157.66" y="-156.95" font-family="Times,serif" font-size="14" text-anchor="middle">:core:ui</text>
        </g>
        <g stroke="#000" class="edge">
            <path fill="none" d="M203.86 24.63C165.57 29.32 119.59 42.28 94.66 76c-9.52 12.86-6.97 21.6 0 36 6.79 14.04 19.32 25.49 31.71 34.11"/>
            <path d="m127.95 142.96 6.51 8.36-10.3-2.47 3.79-5.89z"/>
        </g>
        <g class="node" transform="translate(4 328)">
            <ellipse cx="267.66" cy="-90" fill="none" stroke="#000" rx="82.06" ry="18"/>
            <text x="267.66" y="-84.95" font-family="Times,serif" font-size="14" text-anchor="middle">:core:designsystem</text>
        </g>
        <g stroke="#000" class="edge">
            <path fill="none" d="M287.1 39.54c9.68 9.54 20.4 22.41 25.56 36.46 16.87 45.93-6.62 101.69-24.39 134.08"/>
            <path d="m291.5 211.47-7.99 6.95 1.91-10.42 6.08 3.47z"/>
        </g>
        <g class="node" transform="translate(4 328)">
            <ellipse cx="415.66" cy="-162" fill="none" stroke="#000" rx="60.05" ry="18"/>
            <text x="415.66" y="-156.95" font-family="Times,serif" font-size="14" text-anchor="middle">:core:domain</text>
        </g>
        <g stroke="#000" class="edge">
            <path fill="none" d="M294.65 38.71c15.69 9.75 35.37 23.1 51.01 37.29 21.03 19.09 41.4 44.23 55.42 62.93"/>
            <path d="m403.79 136.7 3.12 10.13-8.75-5.97 5.63-4.16z"/>
        </g>
        <g class="node" transform="translate(4 328)">
            <ellipse cx="199.66" cy="-234" fill="none" stroke="#000" rx="99.97" ry="18"/>
            <text x="199.66" y="-228.95" font-family="Times,serif" font-size="14" text-anchor="middle">:feature:login-employee</text>
        </g>
        <g stroke="red" stroke-width="2" class="edge">
            <path fill="none" d="M252.17 39.95c-7.63 8.34-16.98 18.56-25.42 27.8"/>
            <path fill="red" d="m230.38 68.96-9.33 5.02 4.17-9.75 5.16 4.73z"/>
        </g>
        <g stroke="#000" class="edge">
            <path fill="none" d="M183.92 181.17c15.15 9.64 35.51 22.59 52.8 33.6"/>
            <path d="m238.12 211.51 6.56 8.32-10.31-2.41 3.75-5.91z"/>
        </g>
        <g class="node" transform="translate(4 328)">
            <ellipse cx="64.66" cy="-90" fill="none" stroke="#000" rx="64.66" ry="18"/>
            <text x="64.66" y="-84.95" font-family="Times,serif" font-size="14" text-anchor="middle">:core:analytics</text>
        </g>
        <g stroke="#000" class="edge">
            <path fill="none" d="M141.94 181.85c-12.43 9.34-28.71 21.61-42.78 32.19"/>
            <path d="m101.61 216.58-10.1 3.22 5.89-8.81 4.21 5.59z"/>
        </g>
        <g class="node" transform="translate(4 328)">
            <ellipse cx="360.66" cy="-18" fill="none" stroke="#000" rx="55.45" ry="18"/>
            <text x="360.66" y="-12.95" font-family="Times,serif" font-size="14" text-anchor="middle">:core:model</text>
        </g>
        <g stroke="#000" class="edge">
            <path fill="none" d="M160.43 184.44c-.4 19.88 2.13 52.14 20.23 71.56 29.91 32.09 77.89 45.18 117.35 50.33"/>
            <path d="m298.38 302.85 9.53 4.61-10.33 2.34.8-6.95z"/>
        </g>
        <g stroke="#000" class="edge">
            <path fill="none" d="M413.02 184.13c-9.33 24.09-26.44 68.27-37.6 97.1"/>
            <path d="m378.74 282.34-6.88 8.06.35-10.59 6.53 2.53z"/>
        </g>
        <g class="node" transform="translate(4 328)">
            <ellipse cx="483.66" cy="-90" fill="none" stroke="#000" rx="77.97" ry="18"/>
            <text x="483.66" y="-84.95" font-family="Times,serif" font-size="14" text-anchor="middle">:core:notifications</text>
        </g>
        <g stroke="red" stroke-width="2" class="edge">
            <path fill="none" d="M435.77 183.59c8.18 8.42 18.29 18.83 27.41 28.21"/>
            <path fill="red" d="m464.62 208.26 4.46 9.61-9.48-4.73 5.02-4.88z"/>
        </g>
        <g stroke="#000" class="edge">
            <path fill="none" d="M193.28 112.3c-4.75 7.92-10.48 17.47-15.76 26.26"/>
            <path d="m180.56 140.31-8.15 6.77 2.14-10.38 6.01 3.61z"/>
        </g>
        <g stroke="#000" class="edge">
            <path fill="none" d="M212 112.41c11.63 24.3 32.85 68.62 46.6 97.32"/>
            <path d="m261.65 207.99 1.16 10.53-7.48-7.5 6.32-3.03z"/>
        </g>
        <g stroke="red" stroke-width="2" class="edge">
            <path fill="none" d="M250.79 110.28c34.99 11.33 82.63 26.77 118.39 38.36"/>
            <path fill="red" d="m368.55 144.76 8.44 6.41-10.6.25 2.16-6.66z"/>
        </g>
        <g stroke="red" stroke-width="2" class="edge">
            <path fill="none" d="M459.44 255.06c-17.35 9.88-39.77 22.63-58.44 33.26"/>
            <path fill="red" d="m404.12 290.57-10.43 1.91 6.96-7.99 3.47 6.08z"/>
        </g>
        <g class="node" transform="translate(4 328)">
            <ellipse cx="499.66" cy="-18" fill="none" stroke="#000" rx="65.17" ry="18"/>
            <text x="499.66" y="-12.95" font-family="Times,serif" font-size="14" text-anchor="middle">:core:common</text>
        </g>
        <g stroke="#000" class="edge">
            <path fill="none" d="M491.61 256.3c1.69 7.38 3.7 16.18 5.59 24.45"/>
            <path d="m500.6 279.89-1.19 10.53-5.64-8.97 6.83-1.56z"/>
        </g>
    </g>
</svg>
