<svg xmlns="http://www.w3.org/2000/svg" width="1981pt" height="332pt" viewBox="0 0 1980.51 332">
    <g class="graph">
        <path fill="#fff" stroke="transparent" d="M0 332V0h1980.51v332H0z"/>
        <g class="node" transform="translate(4 328)">
            <ellipse cx="950.02" cy="-306" fill="none" stroke="#000" rx="30.59" ry="18"/>
            <text x="950.02" y="-302.3" font-family="Times,serif" font-size="14" text-anchor="middle">:app</text>
        </g>
        <g class="node" transform="translate(4 328)">
            <ellipse cx="481.02" cy="-234" fill="none" stroke="#000" rx="120.48" ry="18"/>
            <text x="481.02" y="-230.3" font-family="Times,serif" font-size="14" text-anchor="middle">:feature:login-employee</text>
        </g>
        <g stroke="red" stroke-width="2" class="edge">
            <path fill="none" d="M924.68 27.38c-68.28 10.19-240.21 35.85-347.72 51.9"/>
            <path fill="red" d="m577.17 82.78-10.4-1.98 9.37-4.94 1.03 6.92z"/>
        </g>
        <g class="node" transform="translate(4 328)">
            <ellipse cx="1300.02" cy="-234" fill="none" stroke="#000" rx="85.59" ry="18"/>
            <text x="1300.02" y="-230.3" font-family="Times,serif" font-size="14" text-anchor="middle">:feature:stepper</text>
        </g>
        <g stroke="#000" class="edge">
            <path fill="none" d="M982.66 28.73c54.45 10.89 174.33 34.86 251.29 50.26"/>
            <path d="m1234.93 75.61 9.11 5.39-10.49 1.48 1.38-6.87z"/>
        </g>
        <g class="node" transform="translate(4 328)">
            <ellipse cx="714.02" cy="-234" fill="none" stroke="#000" rx="94.78" ry="18"/>
            <text x="714.02" y="-230.3" font-family="Times,serif" font-size="14" text-anchor="middle">:feature:employee</text>
        </g>
        <g stroke="#000" class="edge">
            <path fill="none" d="M927.41 30.89c-36.32 10.78-102.38 30.37-150.62 44.68"/>
            <path d="m777.67 78.96-10.58-.51 8.59-6.2 1.99 6.71z"/>
        </g>
        <g class="node" transform="translate(4 328)">
            <ellipse cx="1487.02" cy="-234" fill="none" stroke="#000" rx="83.39" ry="18"/>
            <text x="1487.02" y="-230.3" font-family="Times,serif" font-size="14" text-anchor="middle">:feature:invoice</text>
        </g>
        <g stroke="#000" class="edge">
            <path fill="none" d="M984.06 25.91C1055.94 33 1243.45 52.39 1399.02 76c7.26 1.1 14.82 2.34 22.35 3.64"/>
            <path d="m1421.99 76.2 9.24 5.18-10.45 1.71 1.21-6.89z"/>
        </g>
        <g class="node" transform="translate(4 328)">
            <ellipse cx="1125.02" cy="-234" fill="none" stroke="#000" rx="71.49" ry="18"/>
            <text x="1125.02" y="-230.3" font-family="Times,serif" font-size="14" text-anchor="middle">:feature:item</text>
        </g>
        <g stroke="#000" class="edge">
            <path fill="none" d="M978.72 32.88c27.01 10.81 70.9 28.36 104.3 41.72"/>
            <path d="m1084.59 71.46 7.98 6.96-10.58-.46 2.6-6.5z"/>
        </g>
        <g class="node" transform="translate(4 328)">
            <ellipse cx="1706.02" cy="-234" fill="none" stroke="#000" rx="79.89" ry="18"/>
            <text x="1706.02" y="-230.3" font-family="Times,serif" font-size="14" text-anchor="middle">:feature:profile</text>
        </g>
        <g stroke="#000" class="edge">
            <path fill="none" d="M984.49 24.36c94.22 4.45 389.14 20.1 631.53 51.64 8.39 1.09 17.17 2.42 25.86 3.86"/>
            <path d="m1642.72 76.45 9.27 5.13-10.44 1.77 1.17-6.9z"/>
        </g>
        <g class="node" transform="translate(4 328)">
            <ellipse cx="90.02" cy="-234" fill="none" stroke="#000" rx="68.79" ry="18"/>
            <text x="90.02" y="-230.3" font-family="Times,serif" font-size="14" text-anchor="middle">:feature:sale</text>
        </g>
        <g stroke="#000" class="edge">
            <path fill="none" d="M923.3 23.46C818.02 25.39 462.35 34.75 172.02 76c-6.21.88-12.67 1.99-19.09 3.2"/>
            <path d="m153.41 82.68-10.49-1.49 9.13-5.38 1.36 6.87z"/>
        </g>
        <g class="node" transform="translate(4 328)">
            <ellipse cx="260.02" cy="-234" fill="none" stroke="#000" rx="83.39" ry="18"/>
            <text x="260.02" y="-230.3" font-family="Times,serif" font-size="14" text-anchor="middle">:feature:setting</text>
        </g>
        <g stroke="#000" class="edge">
            <path fill="none" d="M923.73 24.67c-88 5.08-351.1 21.79-567.71 51.33-7.38 1.01-15.08 2.2-22.73 3.48"/>
            <path d="m333.72 82.95-10.44-1.75 9.26-5.14 1.18 6.89z"/>
        </g>
        <g class="node" transform="translate(4 328)">
            <ellipse cx="950.02" cy="-234" fill="none" stroke="#000" rx="85.29" ry="18"/>
            <text x="950.02" y="-230.3" font-family="Times,serif" font-size="14" text-anchor="middle">:feature:signout</text>
        </g>
        <g stroke="#000" class="edge">
            <path fill="none" d="M954.02 40.3v25.59"/>
            <path d="m957.52 65.9-3.5 10-3.5-10h7z"/>
        </g>
        <g class="node" transform="translate(4 328)">
            <ellipse cx="1888.02" cy="-234" fill="none" stroke="#000" rx="84.49" ry="18"/>
            <text x="1888.02" y="-230.3" font-family="Times,serif" font-size="14" text-anchor="middle">:feature:reports</text>
        </g>
        <g stroke="#000" class="edge">
            <path fill="none" d="M984.45 23.61c110.06 2.48 497.6 13.62 814.57 52.39 7.68.94 15.68 2.11 23.62 3.39"/>
            <path d="m1823.36 75.96 9.29 5.11-10.45 1.8 1.16-6.91z"/>
        </g>
        <g class="node" transform="translate(4 328)">
            <ellipse cx="950.02" cy="-162" fill="none" stroke="#000" rx="45.49" ry="18"/>
            <text x="950.02" y="-158.3" font-family="Times,serif" font-size="14" text-anchor="middle">:core:ui</text>
        </g>
        <g stroke="#000" class="edge">
            <path fill="none" d="M926.31 30.25C904.03 37.71 874.2 51.73 860.02 76c-8.07 13.82-8.07 22.18 0 36 10.67 18.27 30.22 30.73 48.73 38.96"/>
            <path d="m910.09 147.72 7.91 7.05-10.58-.58 2.67-6.47z"/>
        </g>
        <g class="node" transform="translate(4 328)">
            <ellipse cx="835.02" cy="-90" fill="none" stroke="#000" rx="100.98" ry="18"/>
            <text x="835.02" y="-86.3" font-family="Times,serif" font-size="14" text-anchor="middle">:core:designsystem</text>
        </g>
        <g stroke="#000" class="edge">
            <path fill="none" d="M923.44 23.56C765.46 26.6 47.92 42.25 16.02 76-85.02 182.91 486.24 221.36 731.4 232.81"/>
            <path d="m731.58 229.31 9.82 3.96-10.15 3.04.33-7z"/>
        </g>
        <g class="node" transform="translate(4 328)">
            <ellipse cx="1216.02" cy="-162" fill="none" stroke="#000" rx="57.39" ry="18"/>
            <text x="1216.02" y="-158.3" font-family="Times,serif" font-size="14" text-anchor="middle">:core:data</text>
        </g>
        <g stroke="#000" class="edge">
            <path fill="none" d="M984.59 23.21c120.45 1.14 557.55 8.32 598.43 52.79 10.83 11.78 10.47 23.9 0 36-37.43 43.29-201.18 51.92-295.46 53.22"/>
            <path d="m1287.58 168.72-10.04-3.39 9.96-3.61.08 7z"/>
        </g>
        <g stroke="#000" class="edge">
            <path fill="none" d="M566.98 107.23c96.57 14.42 254.1 37.93 335.19 50.03"/>
            <path d="m902.78 153.81 9.37 4.94-10.41 1.99 1.04-6.93z"/>
        </g>
        <g stroke="#000" class="edge">
            <path fill="none" d="M524.94 111.01c65.37 26.22 195 78.22 265.56 106.53"/>
            <path d="m792.08 214.4 7.98 6.97-10.59-.47 2.61-6.5z"/>
        </g>
        <g stroke="red" stroke-width="2" class="edge">
            <path fill="none" d="M570.31 106.78c14.57 1.85 29.56 3.67 43.71 5.22 103.47 11.34 406.88 36.64 540.98 47.68"/>
            <path fill="red" d="m1155.46 156.2 9.67 4.31-10.25 2.67.58-6.98z"/>
        </g>
        <g stroke="#000" class="edge">
            <path fill="none" d="M1244.25 106.95c-67.78 13.56-177.08 35.42-240.43 48.09"/>
            <path d="m1004.17 158.54-10.49-1.47 9.12-5.39 1.37 6.86z"/>
        </g>
        <g stroke="#000" class="edge">
            <path fill="none" d="M1262.2 109.82c-66.81 23.65-192.27 67.91-213.18 74.18-46.41 13.93-99.32 27.26-140.41 37.07"/>
            <path d="m909.23 224.52-10.54-1.09 8.93-5.72 1.61 6.81z"/>
        </g>
        <g stroke="#000" class="edge">
            <path fill="none" d="M1284.11 111.59c-11.03 9.2-24.92 20.77-36.94 30.78"/>
            <path d="m1249.13 145.3-9.92 3.71 5.44-9.09 4.48 5.38z"/>
        </g>
        <g stroke="#000" class="edge">
            <path fill="none" d="M766.92 109.5c41.78 12.4 101.42 30.08 142.05 42.14"/>
            <path d="m910.02 148.3 8.6 6.2-10.59.51 1.99-6.71z"/>
        </g>
        <g stroke="#000" class="edge">
            <path fill="none" d="M732.38 111.85c21.19 24.87 60.99 71.58 85.52 100.36"/>
            <path d="m820.86 210.29 3.82 9.89-9.15-5.35 5.33-4.54z"/>
        </g>
        <g stroke="#000" class="edge">
            <path fill="none" d="M792.09 105.33c99.5 13.87 274.47 38.27 366.85 51.15"/>
            <path d="m1159.55 153.03 9.42 4.85-10.39 2.09.97-6.94z"/>
        </g>
        <g stroke="#000" class="edge">
            <path fill="none" d="M1431.23 106.62c-10.7 1.92-21.77 3.8-32.21 5.38-140.67 21.35-307.44 39.24-391.25 47.72"/>
            <path d="m1008.03 163.22-10.3-2.49 9.6-4.48.7 6.97z"/>
        </g>
        <g stroke="#000" class="edge">
            <path fill="none" d="M1461.79 110.95c-38.9 20.46-110.41 55.4-175.77 73.05-8.49 2.29-226.03 27.56-354.45 42.37"/>
            <path d="m931.68 229.88-10.34-2.33 9.54-4.63.8 6.96z"/>
        </g>
        <g stroke="#000" class="edge">
            <path fill="none" d="M1439.73 108.25c-47.85 12.36-118.91 30.71-167.16 43.18"/>
            <path d="m1273.2 154.88-10.56-.89 8.8-5.89 1.76 6.78z"/>
        </g>
        <g stroke="#000" class="edge">
            <path fill="none" d="M1092.34 109.67c-28.64 11.46-68.39 27.36-97.93 39.17"/>
            <path d="m995.4 152.22-10.58.46 7.98-6.96 2.6 6.5z"/>
        </g>
        <g stroke="#000" class="edge">
            <path fill="none" d="M1110.62 111.6c-22.67 19.69-63.06 52.36-102.6 72.4-31.18 15.8-68 28.02-99.3 36.73"/>
            <path d="m909.33 224.19-10.57-.76 8.74-6 1.83 6.76z"/>
        </g>
        <g stroke="#000" class="edge">
            <path fill="none" d="M1150.13 111.24c12.26 9.43 27.88 21.44 41.24 31.72"/>
            <path d="m1193.55 140.22 5.79 8.87-10.06-3.32 4.27-5.55z"/>
        </g>
        <g stroke="#000" class="edge">
            <path fill="none" d="M1644.51 104.4c-19.74 2.66-41.48 5.42-61.49 7.6-190.21 20.7-238.34 19.9-429 36-49.35 4.17-105.55 8.95-145.78 12.38"/>
            <path d="m1008.37 163.88-10.26-2.64 9.67-4.34.59 6.98z"/>
        </g>
        <g stroke="#000" class="edge">
            <path fill="none" d="M1663.61 108.66c-68.45 19.62-200.78 55.6-315.59 75.34-158.91 27.32-200.68 18.8-361 36-18.2 1.95-37.65 4.13-56.27 6.25"/>
            <path d="m931.14 229.73-10.33-2.35 9.53-4.61.8 6.96z"/>
        </g>
        <g stroke="#000" class="edge">
            <path fill="none" d="M1650.67 106.16c-11.48 2.04-23.43 4.08-34.65 5.84-117.38 18.46-254.99 35.95-333.2 45.5"/>
            <path d="m1283.01 161-10.35-2.27 9.5-4.68.85 6.95z"/>
        </g>
        <g stroke="#000" class="edge">
            <path fill="none" d="M142.92 106.81c9.6 1.99 19.63 3.84 29.1 5.19 270.54 38.44 597.82 49.18 726.36 52.03"/>
            <path d="m898.46 160.53 9.92 3.72-10.07 3.28.15-7z"/>
        </g>
        <g stroke="#000" class="edge">
            <path fill="none" d="M140.8 107.24c71.74 18.46 213.45 53.73 335.22 76.76 92.19 17.44 198.49 32.36 272.13 41.88"/>
            <path d="m748.85 222.44 9.47 4.75-10.37 2.2.9-6.95z"/>
        </g>
        <g stroke="#000" class="edge">
            <path fill="none" d="M142.48 106.91c9.73 2.01 19.92 3.84 29.54 5.09 368.82 47.77 464.8 13.13 836 36 49.54 3.05 105.5 7.59 147.49 11.2"/>
            <path d="m1155.94 155.73 9.66 4.35-10.27 2.62.61-6.97z"/>
        </g>
        <g stroke="#000" class="edge">
            <path fill="none" d="M323.28 106.8c10.86 1.92 22.12 3.75 32.74 5.2 199.14 27.16 437.56 43.48 543.11 49.87"/>
            <path d="m899.45 158.39 9.77 4.09-10.19 2.89.42-6.98z"/>
        </g>
        <g stroke="#000" class="edge">
            <path fill="none" d="M315.11 108.23c68.27 17.61 193.06 49.58 299.91 75.77 51.96 12.73 110.84 26.64 155.18 37.02"/>
            <path d="m771.06 217.62 8.95 5.69-10.54 1.13 1.59-6.82z"/>
        </g>
        <g stroke="#000" class="edge">
            <path fill="none" d="M322.25 106.92c11.17 1.96 22.8 3.77 33.77 5.08 288.17 34.44 362.44 16.4 652 36 49.52 3.35 105.48 7.87 147.47 11.41"/>
            <path d="m1155.91 155.93 9.67 4.33-10.26 2.64.59-6.97z"/>
        </g>
        <g stroke="#000" class="edge">
            <path fill="none" d="M954.02 112.3v25.59"/>
            <path d="m957.52 137.9-3.5 10-3.5-10h7z"/>
        </g>
        <g stroke="#000" class="edge">
            <path fill="none" d="M935.38 111.6c-10.84 10.06-24.47 23.42-35.36 36.4-16.89 20.14-33.58 44.93-45.23 63.23"/>
            <path d="m857.63 213.29-8.29 6.61 2.36-10.33 5.93 3.72z"/>
        </g>
        <g stroke="#000" class="edge">
            <path fill="none" d="M1005.31 108.5c46.79 12.31 115.62 30.42 162.65 42.8"/>
            <path d="m1168.87 147.92 8.78 5.93-10.56.84 1.78-6.77z"/>
        </g>
        <g stroke="#000" class="edge">
            <path fill="none" d="M1832.65 106.99c-11.13 1.93-22.71 3.71-33.63 5.01-285.11 33.88-358.6 15.84-645 36-49.56 3.49-105.96 8.37-146.2 12"/>
            <path d="m1007.96 163.5-10.27-2.58 9.64-4.39.63 6.97z"/>
        </g>
        <g stroke="#000" class="edge">
            <path fill="none" d="M1837.52 107.88c-84.44 19.47-252.21 56.23-396.5 76.12-200.51 27.64-252.53 16.45-454 36-18.44 1.79-38.14 3.91-56.97 6.03"/>
            <path d="M930.34 229.52 920 227.18l9.54-4.61.8 6.95z"/>
        </g>
        <g stroke="#000" class="edge">
            <path fill="none" d="M1832.11 106.76c-10.98 1.93-22.36 3.77-33.09 5.24-185.29 25.36-405.65 41.77-513.26 48.91"/>
            <path d="m1285.91 164.4-10.21-2.83 9.75-4.15.46 6.98z"/>
        </g>
        <g stroke="#000" class="edge">
            <path fill="none" d="M930.19 181.5c-16.05 9.78-37.52 22.84-55.59 33.84"/>
            <path d="m876.4 218.34-10.36 2.21 6.72-8.19 3.64 5.98z"/>
        </g>
        <g class="node" transform="translate(4 328)">
            <ellipse cx="1002.02" cy="-18" fill="none" stroke="#000" rx="64.99" ry="18"/>
            <text x="1002.02" y="-14.3" font-family="Times,serif" font-size="14" text-anchor="middle">:core:model</text>
        </g>
        <g stroke="#000" class="edge">
            <path fill="none" d="M960.19 183.85c8.9 24.31 25.45 69.49 36.03 98.4"/>
            <path d="m999.55 281.14.15 10.59-6.73-8.18 6.58-2.41z"/>
        </g>
        <g class="node" transform="translate(4 328)">
            <ellipse cx="1063.02" cy="-90" fill="none" stroke="#000" rx="70.69" ry="18"/>
            <text x="1063.02" y="-86.3" font-family="Times,serif" font-size="14" text-anchor="middle">:core:domain</text>
        </g>
        <g stroke="red" stroke-width="2" class="edge">
            <path fill="none" d="M1189.06 181.17c-23 10.52-54.62 24.99-79.92 36.56"/>
            <path fill="red" d="m1110.34 221.03-10.55.98 7.63-7.34 2.92 6.36z"/>
        </g>
        <g class="node" transform="translate(4 328)">
            <ellipse cx="1399.02" cy="-18" fill="none" stroke="#000" rx="75.29" ry="18"/>
            <text x="1399.02" y="-14.3" font-family="Times,serif" font-size="14" text-anchor="middle">:core:common</text>
        </g>
        <g stroke="#000" class="edge">
            <path fill="none" d="M1255.33 180.21c21.91 9.2 49.94 22.84 71.69 39.79 23.35 18.19 44.74 44.5 58.83 63.8"/>
            <path d="m1388.83 281.95 2.97 10.17-8.66-6.1 5.69-4.07z"/>
        </g>
        <g class="node" transform="translate(4 328)">
            <ellipse cx="1233.02" cy="-90" fill="none" stroke="#000" rx="81.49" ry="18"/>
            <text x="1233.02" y="-86.3" font-family="Times,serif" font-size="14" text-anchor="middle">:core:datastore</text>
        </g>
        <g stroke="#000" class="edge">
            <path fill="none" d="M1224.22 184.3c1.9 7.8 4.18 17.19 6.29 25.87"/>
            <path d="m1233.91 209.35-1.04 10.55-5.76-8.9 6.8-1.65z"/>
        </g>
        <g stroke="red" stroke-width="2" class="edge">
            <path fill="none" d="M1052.25 255.95c-7.49 8.59-16.73 19.19-24.97 28.65"/>
            <path fill="red" d="m1029.86 286.97-9.21 5.24 3.93-9.84 5.28 4.6z"/>
        </g>
        <g stroke="#000" class="edge">
            <path fill="none" d="m1191.11 252.91-133.19 40.36"/>
            <path d="m1058.93 296.62-10.58-.45 8.55-6.25 2.03 6.7z"/>
        </g>
        <g stroke="#000" class="edge">
            <path fill="none" d="M1273.04 254.19c24.97 10.53 58.39 24.62 85.1 35.88"/>
            <path d="m1359.79 286.97 7.85 7.11-10.57-.66 2.72-6.45z"/>
        </g>
        <g class="node" transform="translate(4 328)">
            <ellipse cx="1195.02" cy="-18" fill="none" stroke="#000" rx="110.48" ry="18"/>
            <text x="1195.02" y="-14.3" font-family="Times,serif" font-size="14" text-anchor="middle">:core:datastore_proto</text>
        </g>
        <g stroke="#000" class="edge">
            <path fill="none" d="M1227.82 255.95c-4.37 8.04-9.69 17.85-14.56 26.82"/>
            <path d="m1216.25 284.61-7.85 7.11 1.69-10.45 6.16 3.34z"/>
        </g>
    </g>
</svg>
