<svg xmlns="http://www.w3.org/2000/svg" width="844" height="404pt" viewBox="0 0 632.89 404">
    <g class="graph">
        <path fill="#fff" stroke="transparent" d="M0 404V0h632.89v404z" />
        <g class="node" transform="translate(4 400)">
            <ellipse cx="192.5" cy="-378" fill="none" stroke="#000" rx="78.79" ry="18" />
            <text x="192.5" y="-374.3" font-family="Times,serif" font-size="14"
                text-anchor="middle">:feature:signin
            </text>
        </g>
        <g class="node" transform="translate(4 400)">
            <ellipse cx="45.5" cy="-234" fill="none" stroke="#000" rx="45.49" ry="18" />
            <text x="45.5" y="-230.3" font-family="Times,serif" font-size="14" text-anchor="middle">
                :core:ui
            </text>
        </g>
        <g stroke="#000" class="edge">
            <path fill="none"
                d="M163.17 38.54C145.61 47.79 124.47 60.7 108.5 76c-19.13 18.32-35.29 43.91-45.83 62.95" />
            <path d="m65.64 140.82-7.82 7.15 1.65-10.46z" />
        </g>
        <g class="node" transform="translate(4 400)">
            <ellipse cx="142.5" cy="-162" fill="none" stroke="#000" rx="100.98" ry="18" />
            <text x="142.5" y="-158.3" font-family="Times,serif" font-size="14"
                text-anchor="middle">:core:designsystem
            </text>
        </g>
        <g stroke="#000" class="edge">
            <path fill="none"
                d="M171.98 39.35C160.4 48.59 147.77 61.23 141.5 76c-18.66 43.89-10.24 100.75-2.54 133.83" />
            <path d="m142.39 209.14-.99 10.54-5.8-8.86z" />
        </g>
        <g class="node" transform="translate(4 400)">
            <ellipse cx="361.5" cy="-234" fill="none" stroke="#000" rx="57.39" ry="18" />
            <text x="361.5" y="-230.3" font-family="Times,serif" font-size="14"
                text-anchor="middle">:core:data
            </text>
        </g>
        <g stroke="#000" class="edge">
            <path fill="none"
                d="M263.23 31.57C315.75 39.85 382.77 54.34 399.5 76c14.79 19.16 1.56 45.5-12.49 64.54" />
            <path d="m389.73 142.76-8.92 5.72 3.4-10.04z" />
        </g>
        <g class="node" transform="translate(4 400)">
            <ellipse cx="266.5" cy="-306" fill="none" stroke="#000" rx="120.48" ry="18" />
            <text x="266.5" y="-302.3" font-family="Times,serif" font-size="14"
                text-anchor="middle">:feature:login-employee
            </text>
        </g>
        <g stroke="red" stroke-width="2" class="edge">
            <path fill="none" d="M214.03 39.59c9.27 8.76 20.81 19.68 31.03 29.35" />
            <path fill="red" d="m247.71 66.63 4.86 9.41-9.67-4.33z" />
        </g>
        <g stroke="#000" class="edge">
            <path fill="none" d="M70.54 182.19c13.05 9.41 30.04 21.67 44.64 32.21" />
            <path d="m117.39 211.68 6.06 8.69-10.15-3.01z" />
        </g>
        <g class="node" transform="translate(4 400)">
            <ellipse cx="152.5" cy="-18" fill="none" stroke="#000" rx="64.99" ry="18" />
            <text x="152.5" y="-14.3" font-family="Times,serif" font-size="14" text-anchor="middle">
                :core:model
            </text>
        </g>
        <g stroke="#000" class="edge">
            <path fill="none"
                d="M42.5 184.11c-6.42 18.21-13.84 47.67-6 71.89 14.49 44.81 56.13 81.56 86.3 103.35" />
            <path d="m125.18 356.75 6.18 8.61-10.2-2.88z" />
        </g>
        <g class="node" transform="translate(4 400)">
            <ellipse cx="164.5" cy="-90" fill="none" stroke="#000" rx="70.69" ry="18" />
            <text x="164.5" y="-86.3" font-family="Times,serif" font-size="14" text-anchor="middle">
                :core:domain
            </text>
        </g>
        <g stroke="#000" class="edge">
            <path fill="none"
                d="M347.23 183.28c-21.15 18.52-57.37 49.23-90.73 72.72-16.1 11.33-34.66 22.74-50.59 32.05" />
            <path d="m207.29 291.3-10.41 1.98 6.91-8.04z" />
        </g>
        <g class="node" transform="translate(4 400)">
            <ellipse cx="549.5" cy="-18" fill="none" stroke="#000" rx="75.29" ry="18" />
            <text x="549.5" y="-14.3" font-family="Times,serif" font-size="14" text-anchor="middle">
                :core:common
            </text>
        </g>
        <g stroke="#000" class="edge">
            <path fill="none"
                d="M418.74 172.81c56.5 7.38 140.28 22.27 159.76 47.19 30.57 39.11 7.47 100.26-10.07 134.85" />
            <path d="m571.43 356.65-7.76 7.22 1.57-10.48z" />
        </g>
        <g class="node" transform="translate(4 400)">
            <ellipse cx="345.5" cy="-90" fill="none" stroke="#000" rx="81.49" ry="18" />
            <text x="345.5" y="-86.3" font-family="Times,serif" font-size="14" text-anchor="middle">
                :core:datastore
            </text>
        </g>
        <g stroke="#000" class="edge">
            <path fill="none"
                d="M351.86 183.5c-7.3 9.91-15.55 23.16-19.36 36.5-5.92 20.71-.65 44.72 5.54 62.58" />
            <path d="m341.36 281.47.25 10.59-6.8-8.13z" />
        </g>
        <g class="node" transform="translate(4 400)">
            <ellipse cx="451.5" cy="-162" fill="none" stroke="#000" rx="114.28" ry="18" />
            <text x="451.5" y="-158.3" font-family="Times,serif" font-size="14"
                text-anchor="middle">:core:firebase-services
            </text>
        </g>
        <g stroke="red" stroke-width="2" class="edge">
            <path fill="none" d="M385.92 182.88c11.74 9.14 26.7 20.77 39.74 30.92" />
            <path fill="red" d="m428.15 211.3 5.75 8.9-10.04-3.37z" />
        </g>
        <g stroke="#000" class="edge">
            <path fill="none" d="M221.45 110.54c-38.13 12.07-90.56 28.68-127.48 40.37" />
            <path d="M94.59 154.39 84 154.07l8.47-6.35z" />
        </g>
        <g stroke="#000" class="edge">
            <path fill="none" d="M255.54 112.13c-21.79 24.95-62.37 71.42-87.41 100.1" />
            <path d="m170.72 214.58-9.21 5.23 3.94-9.83z" />
        </g>
        <g stroke="red" stroke-width="2" class="edge">
            <path fill="none" d="M293.49 111.95c12.74 9.38 28.7 21.14 42.36 31.21" />
            <path fill="red" d="m338.04 140.42 5.97 8.75-10.12-3.11z" />
        </g>
        <g stroke="#000" class="edge">
            <path fill="none" d="M165.53 328.3c-1.32 7.72-2.91 16.99-4.39 25.59" />
            <path d="m164.57 354.63-5.14 9.27-1.76-10.45z" />
        </g>
        <g stroke="red" stroke-width="2" class="edge">
            <path fill="none" d="M309.04 325.67c-30.66 11.12-72.85 26.43-105.1 38.12" />
            <path fill="red" d="m204.87 367.18-10.59.12 8.21-6.7z" />
        </g>
        <g stroke="#000" class="edge">
            <path fill="none" d="M391.76 325.5c32.19 11.05 76.62 26.3 110.78 38.01" />
            <path d="m504 360.32 8.33 6.55-10.6.07z" />
        </g>
        <g class="node" transform="translate(4 400)">
            <ellipse cx="345.5" cy="-18" fill="none" stroke="#000" rx="110.48" ry="18" />
            <text x="345.5" y="-14.3" font-family="Times,serif" font-size="14" text-anchor="middle">
                :core:datastore_proto
            </text>
        </g>
        <g stroke="#000" class="edge">
            <path fill="none" d="M349.5 328.3v25.59" />
            <path d="m353 353.9-3.5 10-3.5-10z" />
        </g>
        <g stroke="#000" class="edge">
            <path fill="none" d="M467.32 256.13c17.07 24.73 48.74 70.63 68.57 99.36" />
            <path d="m538.83 353.59 2.8 10.22-8.56-6.24z" />
        </g>
        <g stroke="red" stroke-width="2" class="edge">
            <path fill="none" d="M430.38 255.59c-14.23 9.39-32.21 21.26-47.6 31.43" />
            <path fill="red" d="m384.34 290.18-10.27 2.59 6.42-8.43z" />
        </g>
    </g>
</svg>
