<svg xmlns="http://www.w3.org/2000/svg" width="464pt" height="260pt" viewBox="0 0 463.62 260">
    <g class="graph">
        <path fill="#fff" d="M0 260V0h463.62v260H0z"/>
        <g class="node" transform="translate(4 256)">
            <ellipse cx="258.45" cy="-234" fill="none" stroke="#000" rx="56.47" ry="18"/>
            <text x="258.45" y="-228.95" font-family="Times,serif" font-size="14" text-anchor="middle">:core:printer</text>
        </g>
        <g class="node" transform="translate(4 256)">
            <ellipse cx="55.45" cy="-18" fill="none" stroke="#000" rx="55.45" ry="18"/>
            <text x="55.45" y="-12.95" font-family="Times,serif" font-size="14" text-anchor="middle">:core:model</text>
        </g>
        <g stroke="#000" class="edge">
            <path fill="none" d="M226.12 36c-21.2 8.88-47.46 22.27-66.67 40-41.9 38.65-72.89 98.73-88.55 133.52"/>
            <path d="m74.19 210.74-7.22 7.75.81-10.56 6.41 2.81z"/>
        </g>
        <g class="node" transform="translate(4 256)">
            <ellipse cx="258.45" cy="-162" fill="none" stroke="#000" rx="93.83" ry="18"/>
            <text x="258.45" y="-156.95" font-family="Times,serif" font-size="14" text-anchor="middle">:core:firebase-services</text>
        </g>
        <g stroke="red" stroke-width="2" class="edge">
            <path fill="none" d="M262.45 40.3v24.16"/>
            <path fill="red" d="m265.95 62.87-3.5 10-3.5-10h7z"/>
        </g>
        <g class="node" transform="translate(4 256)">
            <ellipse cx="390.45" cy="-18" fill="none" stroke="#000" rx="65.17" ry="18"/>
            <text x="390.45" y="-12.95" font-family="Times,serif" font-size="14" text-anchor="middle">:core:common</text>
        </g>
        <g stroke="#000" class="edge">
            <path fill="none" d="M304.01 34.56c21.58 8.12 46.49 21.23 61.44 41.44 28.85 39.01 32.11 97.66 31.08 132.36"/>
            <path d="m400.04 208.22-3.95 9.84-3.04-10.15 6.99.31z"/>
        </g>
        <g stroke="#000" class="edge">
            <path fill="none" d="M278.37 112.13c23.11 24.87 66.12 71.12 92.79 99.82"/>
            <path d="m373.6 209.44 4.25 9.7-9.38-4.94 5.13-4.76z"/>
        </g>
        <g class="node" transform="translate(4 256)">
            <ellipse cx="223.45" cy="-90" fill="none" stroke="#000" rx="65.17" ry="18"/>
            <text x="223.45" y="-84.95" font-family="Times,serif" font-size="14" text-anchor="middle">:core:datastore</text>
        </g>
        <g stroke="red" stroke-width="2" class="edge">
            <path fill="none" d="M253.79 112.3c-3.81 7.63-8.39 16.78-12.65 25.3"/>
            <path fill="red" d="m244.95 137.81-7.6 7.38 1.34-10.51 6.26 3.13z"/>
        </g>
        <g stroke="red" stroke-width="2" class="edge">
            <path fill="none" d="M192.64 181.5c-26.08 10.87-61.93 25.81-89.86 37.44"/>
            <path fill="red" d="m105.87 221.45-10.58.61 7.89-7.07 2.69 6.46z"/>
        </g>
        <g stroke="#000" class="edge">
            <path fill="none" d="M262.05 181.5c25.22 10.57 59.62 25 87.04 36.49"/>
            <path d="m350.34 214.72 7.86 7.09-10.57-.64 2.71-6.45z"/>
        </g>
        <g class="node" transform="translate(4 256)">
            <ellipse cx="218.45" cy="-18" fill="none" stroke="#000" rx="89.23" ry="18"/>
            <text x="218.45" y="-12.95" font-family="Times,serif" font-size="14" text-anchor="middle">:core:datastore_proto</text>
        </g>
        <g stroke="#000" class="edge">
            <path fill="none" d="M226.21 184.3c-.52 7.29-1.14 15.97-1.73 24.16"/>
            <path d="m227.98 208.66-4.2 9.73-2.78-10.23 6.98.5z"/>
        </g>
    </g>
</svg>
