<svg xmlns="http://www.w3.org/2000/svg" width="545pt" height="188pt" viewBox="0 0 544.88 188">
    <g class="graph">
        <path fill="#fff" stroke="transparent" d="M0 188V0h544.88v188z" />
        <g class="node" transform="translate(4 184)">
            <ellipse cx="153.39" cy="-162" fill="none" stroke="#000" rx="114.28" ry="18" />
            <text x="153.39" y="-158.3" font-family="Times,serif" font-size="14"
                text-anchor="middle">:core:firebase-services
            </text>
        </g>
        <g class="node" transform="translate(4 184)">
            <ellipse cx="75.39" cy="-18" fill="none" stroke="#000" rx="75.29" ry="18" />
            <text x="75.39" y="-14.3" font-family="Times,serif" font-size="14" text-anchor="middle">
                :core:common
            </text>
        </g>
        <g stroke="#000" class="edge">
            <path fill="none" d="M147.98 40.13c-13.46 24.52-38.36 69.84-54.16 98.61" />
            <path d="m96.72 140.73-7.88 7.08 1.74-10.45z" />
        </g>
        <g class="node" transform="translate(4 184)">
            <ellipse cx="220.39" cy="-90" fill="none" stroke="#000" rx="81.49" ry="18" />
            <text x="220.39" y="-86.3" font-family="Times,serif" font-size="14"
                text-anchor="middle">:core:datastore
            </text>
        </g>
        <g stroke="red" stroke-width="2" class="edge">
            <path fill="none" d="M173.61 39.95c8.31 8.68 18.58 19.41 27.7 28.94" />
            <path fill="red" d="m203.94 66.57 4.38 9.64-9.44-4.8z" />
        </g>
        <g stroke="#000" class="edge">
            <path fill="none" d="M192.21 110.54c-21.12 10.19-48.93 23.62-71.65 34.59" />
            <path d="m122.01 148.31-10.53 1.2 7.49-7.5z" />
        </g>
        <g class="node" transform="translate(4 184)">
            <ellipse cx="233.39" cy="-18" fill="none" stroke="#000" rx="64.99" ry="18" />
            <text x="233.39" y="-14.3" font-family="Times,serif" font-size="14"
                text-anchor="middle">:core:model
            </text>
        </g>
        <g stroke="red" stroke-width="2" class="edge">
            <path fill="none" d="M227.61 112.3c1.43 7.72 3.15 16.99 4.75 25.59" />
            <path fill="red" d="m235.83 137.42-1.61 10.48-5.27-9.2z" />
        </g>
        <g class="node" transform="translate(4 184)">
            <ellipse cx="426.39" cy="-18" fill="none" stroke="#000" rx="110.48" ry="18" />
            <text x="426.39" y="-14.3" font-family="Times,serif" font-size="14"
                text-anchor="middle">:core:datastore_proto
            </text>
        </g>
        <g stroke="#000" class="edge">
            <path fill="none" d="M267.08 109.5c31.32 10.65 74.13 25.19 108.06 36.72" />
            <path d="m376.56 143.01 8.35 6.53-10.6.1z" />
        </g>
    </g>
</svg>
