<svg xmlns="http://www.w3.org/2000/svg" width="545pt" height="260pt" viewBox="0 0 545.39 260">
    <g class="graph">
        <path fill="#fff" stroke="transparent" d="M0 260V0h545.39v260z" />
        <g class="node" transform="translate(4 256)">
            <ellipse cx="309.99" cy="-234" fill="none" stroke="#000" rx="69.59" ry="18" />
            <text x="309.99" y="-230.3" font-family="Times,serif" font-size="14"
                text-anchor="middle">:core:printer
            </text>
        </g>
        <g class="node" transform="translate(4 256)">
            <ellipse cx="64.99" cy="-18" fill="none" stroke="#000" rx="64.99" ry="18"/>
            <text x="64.99" y="-14.3" font-family="Times,serif" font-size="14" text-anchor="middle">:core:model</text>
        </g>
        <g stroke="#000" class="edge">
            <path fill="none"
                d="M269.48 35.94C244.69 44.6 214.24 57.79 190.99 76c-48.7 38.16-88.21 100.18-108.07 135.06" />
            <path d="m85.78 213.11-7.94 7.02 1.83-10.43z" />
        </g>
        <g class="node" transform="translate(4 256)">
            <ellipse cx="309.99" cy="-162" fill="none" stroke="#000" rx="114.28" ry="18" />
            <text x="309.99" y="-158.3" font-family="Times,serif" font-size="14"
                text-anchor="middle">:core:firebase-services
            </text>
        </g>
        <g stroke="red" stroke-width="2" class="edge">
            <path fill="none" d="M313.99 40.3v25.59" />
            <path fill="red" d="m317.49 65.9-3.5 10-3.5-10z" />
        </g>
        <g class="node" transform="translate(4 256)">
            <ellipse cx="461.99" cy="-18" fill="none" stroke="#000" rx="75.29" ry="18" />
            <text x="461.99" y="-14.3" font-family="Times,serif" font-size="14"
                text-anchor="middle">:core:common
            </text>
        </g>
        <g stroke="#000" class="edge">
            <path fill="none"
                d="M367.19 33.67c24.81 7.68 52.6 20.66 69.8 42.33 30.6 38.54 33.07 98.65 31.46 133.49" />
            <path d="m471.92 210.08-4.1 9.77-2.88-10.19z" />
        </g>
        <g stroke="#000" class="edge">
            <path fill="none" d="M332.03 111.85c26.97 25.19 77.91 72.78 108.61 101.47" />
            <path d="m443.07 210.79 4.91 9.39-9.69-4.27z" />
        </g>
        <g class="node" transform="translate(4 256)">
            <ellipse cx="264.99" cy="-90" fill="none" stroke="#000" rx="81.49" ry="18" />
            <text x="264.99" y="-86.3" font-family="Times,serif" font-size="14"
                text-anchor="middle">:core:datastore
            </text>
        </g>
        <g stroke="red" stroke-width="2" class="edge">
            <path fill="none" d="M303.1 111.95c-5.23 8.13-11.61 18.05-17.43 27.11" />
            <path fill="red" d="m288.45 141.21-8.35 6.51 2.46-10.3z" />
        </g>
        <g stroke="red" stroke-width="2" class="edge">
            <path fill="none" d="M227.55 181.5c-32.07 11.23-76.55 26.8-110.24 38.59" />
            <path fill="red" d="M118.26 223.46h-10.59l8.28-6.6z" />
        </g>
        <g stroke="#000" class="edge">
            <path fill="none" d="M310.29 181.67c30.78 10.94 72.96 25.93 105.65 37.55" />
            <path d="m417.51 216.06 8.25 6.64-10.59-.05z" />
        </g>
        <g class="node" transform="translate(4 256)">
            <ellipse cx="257.99" cy="-18" fill="none" stroke="#000" rx="110.48" ry="18" />
            <text x="257.99" y="-14.3" font-family="Times,serif" font-size="14"
                text-anchor="middle">:core:datastore_proto
            </text>
        </g>
        <g stroke="#000" class="edge">
            <path fill="none" d="M267.26 184.3c-.77 7.72-1.69 16.99-2.55 25.59" />
            <path d="m268.18 210.29-4.48 9.61-2.48-10.3z" />
        </g>
    </g>
</svg>
