<svg xmlns="http://www.w3.org/2000/svg" width="545pt" height="116pt" viewBox="0 0 545.39 116">
    <g class="graph">
        <path fill="#fff" stroke="transparent" d="M0 116V0h545.39v116z" />
        <g class="node" transform="translate(4 112)">
            <ellipse cx="257.99" cy="-90" fill="none" stroke="#000" rx="81.49" ry="18"/>
            <text x="257.99" y="-86.3" font-family="Times,serif" font-size="14" text-anchor="middle">:core:datastore</text>
        </g>
        <g class="node" transform="translate(4 112)">
            <ellipse cx="64.99" cy="-18" fill="none" stroke="#000" rx="64.99" ry="18"/>
            <text x="64.99" y="-14.3" font-family="Times,serif" font-size="14" text-anchor="middle">:core:model</text>
        </g>
        <g stroke="red" stroke-width="2" class="edge">
            <path fill="none" d="M221.54 37.67c-30.66 11.12-72.85 26.43-105.1 38.12"/>
            <path fill="red" d="m117.37 79.18-10.59.12 8.21-6.7z" />
        </g>
        <g class="node" transform="translate(4 112)">
            <ellipse cx="257.99" cy="-18" fill="none" stroke="#000" rx="110.48" ry="18"/>
            <text x="257.99" y="-14.3" font-family="Times,serif" font-size="14" text-anchor="middle">:core:datastore_proto</text>
        </g>
        <g stroke="#000" class="edge">
            <path fill="none" d="M261.99 40.3v25.59"/>
            <path d="m265.49 65.9-3.5 10-3.5-10z" />
        </g>
        <g class="node" transform="translate(4 112)">
            <ellipse cx="461.99" cy="-18" fill="none" stroke="#000" rx="75.29" ry="18"/>
            <text x="461.99" y="-14.3" font-family="Times,serif" font-size="14" text-anchor="middle">:core:common</text>
        </g>
        <g stroke="#000" class="edge">
            <path fill="none" d="M304.26 37.5c32.19 11.05 76.62 26.3 110.77 38.01"/>
            <path d="m416.5 72.32 8.32 6.55-10.59.07z" />
        </g>
    </g>
</svg>
