<svg height="332pt" viewBox="0 0 762.13 332" width="1016" xmlns="http://www.w3.org/2000/svg">
    <g class="graph">
        <path d="M0 332V0h762.13v332z" fill="#fff" stroke="transparent" />
        <g class="node" transform="translate(4 328)">
            <ellipse cx="267.74" cy="-306" fill="none" rx="83.39" ry="18" stroke="#000" />
            <text font-family="Times,serif" font-size="14" text-anchor="middle" x="267.74"
                y="-302.3">:feature:setting
            </text>
        </g>
        <g class="node" transform="translate(4 328)">
            <ellipse cx="201.74" cy="-234" fill="none" rx="45.49" ry="18" stroke="#000" />
            <text font-family="Times,serif" font-size="14" text-anchor="middle" x="201.74"
                y="-230.3">:core:ui
            </text>
        </g>
        <g stroke="#000" class="edge">
            <path d="M255.76 39.95c-8.3 8.81-18.59 19.72-27.68 29.36" fill="none" />
            <path d="m230.52 71.82-9.4 4.87 4.31-9.67z" />
        </g>
        <g class="node" transform="translate(4 328)">
            <ellipse cx="100.74" cy="-162" fill="none" rx="100.98" ry="18" stroke="#000" />
            <text font-family="Times,serif" font-size="14" text-anchor="middle" x="100.74"
                y="-158.3">:core:designsystem
            </text>
        </g>
        <g stroke="#000" class="edge">
            <path d="M222.16 36.52c-23.5 8.35-50.68 21.08-70.42 39.48-18.28 17.05-30.81 42.84-38.3 62.27"
                fill="none" />
            <path d="m116.69 139.58-6.72 8.2.14-10.6z" />
        </g>
        <g class="node" transform="translate(4 328)">
            <ellipse cx="432.74" cy="-162" fill="none" rx="57.39" ry="18" stroke="#000" />
            <text font-family="Times,serif" font-size="14" text-anchor="middle" x="432.74"
                y="-158.3">:core:data
            </text>
        </g>
        <g class="edge" stroke="#000">
            <path d="M339.16 32.72c28.05 7.4 58.66 20.4 78.58 43.28 14.71 16.89 18.95 42.36 19.81 61.73"
                fill="none" />
            <path d="m441.05 137.72-3.32 10.06-3.67-9.94z" />
        </g>
        <g class="node" transform="translate(4 328)">
            <ellipse cx="334.74" cy="-234" fill="none" rx="69.59" ry="18" stroke="#000" />
            <text font-family="Times,serif" font-size="14" text-anchor="middle" x="334.74"
                y="-230.3">:core:printer
            </text>
        </g>
        <g stroke="red" stroke-width="2" class="edge">
            <path d="M287.96 39.95c8.31 8.68 18.58 19.41 27.7 28.94" fill="none" />
            <path d="m318.29 66.57 4.38 9.64-9.44-4.8z" fill="red" />
        </g>
        <g stroke="#000" class="edge">
            <path d="M183.83 110.19c-13.58 9.41-31.28 21.67-46.48 32.21" fill="none" />
            <path d="m138.95 145.55-10.22 2.82 6.23-8.57z" />
        </g>
        <g class="node" transform="translate(4 328)">
            <ellipse cx="276.74" cy="-18" fill="none" rx="64.99" ry="18" stroke="#000" />
            <text font-family="Times,serif" font-size="14" text-anchor="middle" x="276.74"
                y="-14.3">:core:model
            </text>
        </g>
        <g stroke="#000" class="edge">
            <path d="M211.75 112.15c13.06 37.27 44.11 125.85 59.71 170.36" fill="none" />
            <path d="m274.8 281.47.01 10.59-6.61-8.27z" />
        </g>
        <g class="node" transform="translate(4 328)">
            <ellipse cx="366.74" cy="-90" fill="none" rx="70.69" ry="18" stroke="#000" />
            <text font-family="Times,serif" font-size="14" text-anchor="middle" x="366.74"
                y="-86.3">:core:domain
            </text>
        </g>
        <g stroke="red" stroke-width="2" class="edge">
            <path d="M421.1 183.59c-8.18 8.68-18.35 19.46-27.41 29.07" fill="none" />
            <path d="m396.14 215.17-9.41 4.87 4.31-9.67z" fill="red" />
        </g>
        <g class="node" transform="translate(4 328)">
            <ellipse cx="678.74" cy="-18" fill="none" rx="75.29" ry="18" stroke="#000" />
            <text font-family="Times,serif" font-size="14" text-anchor="middle" x="678.74"
                y="-14.3">:core:common
            </text>
        </g>
        <g stroke="#000" class="edge">
            <path d="M491.87 170.87c41.8 5.41 98.7 18.32 138.87 49.13 20.65 15.84 34.62 42.41 42.84 62.4"
                fill="none" />
            <path d="m676.9 281.3.35 10.59-6.88-8.06z" />
        </g>
        <g class="node" transform="translate(4 328)">
            <ellipse cx="536.74" cy="-90" fill="none" rx="81.49" ry="18" stroke="#000" />
            <text font-family="Times,serif" font-size="14" text-anchor="middle" x="536.74"
                y="-86.3">:core:datastore
            </text>
        </g>
        <g stroke="#000" class="edge">
            <path d="M459.82 182.54c14.24 9.58 32.72 22.02 48.43 32.59" fill="none" />
            <path d="m510.3 212.29 6.34 8.49-10.25-2.68z" />
        </g>
        <g stroke="red" stroke-width="2" class="edge">
            <path d="M361.47 111.24c13.42 9.58 30.58 21.84 45.13 32.23" fill="none" />
            <path d="m408.71 140.67 6.1 8.66-10.17-2.96z" fill="red" />
        </g>
        <g stroke="#000" class="edge">
            <path d="M330.63 111.94c-10.92 23.63-30.14 68.09-39.89 108.06-4.97 20.36-7.47 43.95-8.74 61.73"
                fill="none" />
            <path d="m285.5 281.95-4.12 9.76-2.87-10.2z" />
        </g>
        <g stroke="#000" class="edge">
            <path d="M401.65 101.76c73.1 11.32 191.99 41.09 257.09 118.24 14.63 17.34 20.42 42.76 22.67 62"
                fill="none" />
            <path d="m684.89 281.68-2.56 10.28-4.41-9.63z" />
        </g>
        <g class="edge" stroke="red" stroke-width="2">
            <path d="M349.87 255.24c-11.93 9.27-27.07 21.05-40.13 31.21" fill="none" />
            <path d="m311.54 289.48-10.04 3.37 5.75-8.9z" fill="red" />
        </g>
        <g stroke="#000" class="edge">
            <path d="M491.23 252.33c-44.48 11.97-109.67 29.53-155.7 41.92" fill="none" />
            <path d="m336.29 297.67-10.56-.78 8.74-5.98z" />
        </g>
        <g class="edge" stroke="#000">
            <path d="M572.61 254.71c20.6 10.16 47.61 23.47 69.72 34.37" fill="none" />
            <path d="m644.05 286.02 7.42 7.56-10.52-1.28z" />
        </g>
        <g class="node" transform="translate(4 328)">
            <ellipse cx="474.74" cy="-18" fill="none" rx="110.48" ry="18" stroke="#000" />
            <text font-family="Times,serif" font-size="14" text-anchor="middle" x="474.74"
                y="-14.3">:core:datastore_proto
            </text>
        </g>
        <g class="edge" stroke="#000">
            <path d="M525.73 255.95c-7.5 8.47-16.73 18.88-25.01 28.23" fill="none" />
            <path d="m503.29 286.56-9.25 5.16 4.01-9.8z" />
        </g>
    </g>
</svg>
