<svg xmlns="http://www.w3.org/2000/svg" width="2772" height="476pt" viewBox="0 0 2079.02 476">
    <g class="graph">
        <path fill="#fff" d="M0 476V0h2079.02v476H0z"/>
        <g class="node" transform="translate(4 472)">
            <ellipse cx="1008.83" cy="-450" fill="none" stroke="#000" rx="27" ry="18"/>
            <text x="1008.83" y="-444.95" font-family="Times,serif" font-size="14" text-anchor="middle">:app</text>
        </g>
        <g class="node" transform="translate(4 472)">
            <ellipse cx="135.83" cy="-378" fill="none" stroke="#000" rx="64.15" ry="18"/>
            <text x="135.83" y="-372.95" font-family="Times,serif" font-size="14" text-anchor="middle">:feature:signin</text>
        </g>
        <g stroke="red" stroke-width="2" class="edge">
            <path fill="none" d="M986.02 25.08C895.49 32.1 592.87 55.64 342.83 76c-43.47 3.54-92.17 7.61-130.97 10.89"/>
            <path fill="red" d="m213.94 90.22-10.25-2.64 9.67-4.33.58 6.97z"/>
        </g>
        <g class="node" transform="translate(4 472)">
            <ellipse cx="1442.83" cy="-306" fill="none" stroke="#000" rx="68.24" ry="18"/>
            <text x="1442.83" y="-300.95" font-family="Times,serif" font-size="14" text-anchor="middle">:feature:stepper</text>
        </g>
        <g stroke="#000" class="edge">
            <path fill="none" d="M1036.78 30.84c67.95 22.23 263.09 86.08 357.56 116.99"/>
            <path d="m1395.22 144.43 8.42 6.44-10.6.22 2.18-6.66z"/>
        </g>
        <g class="node" transform="translate(4 472)">
            <ellipse cx="1644.83" cy="-306" fill="none" stroke="#000" rx="77.97" ry="18"/>
            <text x="1644.83" y="-300.95" font-family="Times,serif" font-size="14" text-anchor="middle">:feature:employee</text>
        </g>
        <g stroke="#000" class="edge">
            <path fill="none" d="M1038.15 28.65c91.46 20.42 406.56 90.78 544.8 121.64"/>
            <path d="m1583.7 146.87 9 5.6-10.52 1.23 1.52-6.83z"/>
        </g>
        <g class="node" transform="translate(4 472)">
            <ellipse cx="532.83" cy="-306" fill="none" stroke="#000" rx="84.62" ry="18"/>
            <text x="532.83" y="-300.95" font-family="Times,serif" font-size="14" text-anchor="middle">:feature:sales-report</text>
        </g>
        <g stroke="#000" class="edge">
            <path fill="none" d="M988.14 29.75c-35.99 9.89-104.94 29-163.31 46.25-80.63 23.82-173.48 52.79-231.46 71.07"/>
            <path d="m594.64 150.34-10.59-.33 8.49-6.35 2.1 6.68z"/>
        </g>
        <g class="node" transform="translate(4 472)">
            <ellipse cx="712.83" cy="-306" fill="none" stroke="#000" rx="76.94" ry="18"/>
            <text x="712.83" y="-300.95" font-family="Times,serif" font-size="14" text-anchor="middle">:feature:inventory</text>
        </g>
        <g stroke="#000" class="edge">
            <path fill="none" d="M991.54 33.21c-48.47 23.25-167.82 80.51-232.09 111.34"/>
            <path d="m761.15 147.62-10.53 1.17 7.5-7.48 3.03 6.31z"/>
        </g>
        <g class="node" transform="translate(4 472)">
            <ellipse cx="865.83" cy="-306" fill="none" stroke="#000" rx="58.52" ry="18"/>
            <text x="865.83" y="-300.95" font-family="Times,serif" font-size="14" text-anchor="middle">:feature:item</text>
        </g>
        <g stroke="#000" class="edge">
            <path fill="none" d="M998.33 37.4c-24.4 24.23-73.95 73.43-103.88 103.15"/>
            <path d="m897.2 142.76-9.57 4.56 4.63-9.53 4.94 4.97z"/>
        </g>
        <g class="node" transform="translate(4 472)">
            <ellipse cx="1811.83" cy="-306" fill="none" stroke="#000" rx="71.31" ry="18"/>
            <text x="1811.83" y="-300.95" font-family="Times,serif" font-size="14" text-anchor="middle">:feature:supplier</text>
        </g>
        <g stroke="#000" class="edge">
            <path fill="none" d="M1039.12 26.98c56.18 8.55 192.09 29.49 305.71 49.02 174.14 29.93 217.67 37.63 391 72 5.21 1.03 10.6 2.13 16.02 3.24"/>
            <path d="m1752.38 147.78 9.08 5.46-10.51 1.39 1.43-6.85z"/>
        </g>
        <g class="node" transform="translate(4 472)">
            <ellipse cx="1008.83" cy="-306" fill="none" stroke="#000" rx="66.19" ry="18"/>
            <text x="1008.83" y="-300.95" font-family="Times,serif" font-size="14" text-anchor="middle">:feature:profile</text>
        </g>
        <g stroke="#000" class="edge">
            <path fill="none" d="M1012.83 40.41v96.17"/>
            <path d="m1016.33 136.38-3.5 10-3.5-10h7z"/>
        </g>
        <g class="node" transform="translate(4 472)">
            <ellipse cx="1148.83" cy="-306" fill="none" stroke="#000" rx="55.96" ry="18"/>
            <text x="1148.83" y="-300.95" font-family="Times,serif" font-size="14" text-anchor="middle">:feature:sale</text>
        </g>
        <g stroke="#000" class="edge">
            <path fill="none" d="M1027.28 37.66c23.91 24.25 71.95 72.97 101.17 102.62"/>
            <path d="m1130.93 137.8 4.53 9.58-9.52-4.66 4.99-4.92z"/>
        </g>
        <g class="node" transform="translate(4 472)">
            <ellipse cx="2004.83" cy="-306" fill="none" stroke="#000" rx="66.19" ry="18"/>
            <text x="2004.83" y="-300.95" font-family="Times,serif" font-size="14" text-anchor="middle">:feature:setting</text>
        </g>
        <g stroke="#000" class="edge">
            <path fill="none" d="M1039.9 23.34c142.99 1.99 807.01 13.27 888.93 52.66 27.83 13.39 50.32 41.24 64.28 62.24"/>
            <path d="m1996.04 136.32 2.41 10.32-8.32-6.56 5.91-3.76z"/>
        </g>
        <g class="node" transform="translate(4 472)">
            <ellipse cx="322.83" cy="-306" fill="none" stroke="#000" rx="68.75" ry="18"/>
            <text x="322.83" y="-300.95" font-family="Times,serif" font-size="14" text-anchor="middle">:feature:signout</text>
        </g>
        <g stroke="#000" class="edge">
            <path fill="none" d="M985.52 22.84C881.85 22.62 513.36 25.48 409.83 76c-28.36 13.84-51.88 41.82-66.55 62.73"/>
            <path d="m346.33 140.47-8.5 6.33 2.7-10.25 5.8 3.92z"/>
        </g>
        <g class="node" transform="translate(4 472)">
            <ellipse cx="1289.83" cy="-306" fill="none" stroke="#000" rx="67.22" ry="18"/>
            <text x="1289.83" y="-300.95" font-family="Times,serif" font-size="14" text-anchor="middle">:feature:reports</text>
        </g>
        <g stroke="#000" class="edge">
            <path fill="none" d="M1033.95 33.67c46.57 23.54 158.76 80.23 219.38 110.86"/>
            <path d="m1254.61 141.26 7.35 7.64-10.51-1.39 3.16-6.25z"/>
        </g>
        <g class="node" transform="translate(4 472)">
            <ellipse cx="1008.83" cy="-234" fill="none" stroke="#000" rx="39.07" ry="18"/>
            <text x="1008.83" y="-228.95" font-family="Times,serif" font-size="14" text-anchor="middle">:core:ui</text>
        </g>
        <g stroke="#000" class="edge">
            <path fill="none" d="M985.83 24.48C881.9 30.79 510.18 59.37 442.83 148c-9.68 12.74-10.78 24.17 0 36 34.64 38.01 385.95 49.21 519.16 52.1"/>
            <path d="m962 232.6 9.92 3.7-10.07 3.29.15-6.99z"/>
        </g>
        <g class="node" transform="translate(4 472)">
            <ellipse cx="880.83" cy="-162" fill="none" stroke="#000" rx="82.06" ry="18"/>
            <text x="880.83" y="-156.95" font-family="Times,serif" font-size="14" text-anchor="middle">:core:designsystem</text>
        </g>
        <g stroke="#000" class="edge">
            <path fill="none" d="M985.8 23.21C839.97 24.54 150.51 33.03 66.83 76c-36.56 18.77-44.34 33.25-58 72-21.46 60.84 36.46 85.68 97 108 123.21 45.43 506.12 52.45 685.06 53.18"/>
            <path d="m790.88 305.68 9.98 3.53-10.01 3.47.03-7z"/>
        </g>
        <g class="node" transform="translate(4 472)">
            <ellipse cx="1286.83" cy="-234" fill="none" stroke="#000" rx="47.26" ry="18"/>
            <text x="1286.83" y="-228.95" font-family="Times,serif" font-size="14" text-anchor="middle">:core:data</text>
        </g>
        <g stroke="#000" class="edge">
            <path fill="none" d="M1039.69 24.71c141.8 9.32 798.98 55.92 856.14 123.29 47.72 56.24-5.43 32.75-435 72-37.92 3.46-80.55 7.73-113.64 11.12"/>
            <path d="m1347.72 234.58-10.31-2.45 9.59-4.51.72 6.96z"/>
        </g>
        <g stroke="#000" class="edge">
            <path fill="none" d="M91 106.05c-22.4 7.78-46.89 20.72-60.17 41.95-8.49 13.56-11.01 24.39 0 36 32.31 34.1 735.13 48.74 931.46 52.18"/>
            <path d="m962.23 232.68 9.93 3.67-10.05 3.33.12-7z"/>
        </g>
        <g stroke="#000" class="edge">
            <path fill="none" d="M86.84 104.59C62.05 112.02 34.75 125.1 19.83 148c-8.74 13.41-10.04 23.54 0 36 48.36 60.05 565.23 103.54 776.14 118.92"/>
            <path d="m796.07 299.41 9.72 4.22-10.23 2.77.51-6.99z"/>
        </g>
        <g stroke="#000" class="edge">
            <path fill="none" d="M204.13 95.01c266.62.36 1273.43 4.91 1319.7 52.99 51.18 53.18-47.12 36.94-181 72-2.26.59-4.57 1.23-6.89 1.89"/>
            <path d="m1337.09 225.2-10.58-.47 8.57-6.23 2.01 6.7z"/>
        </g>
        <g class="node" transform="translate(4 472)">
            <ellipse cx="135.83" cy="-306" fill="none" stroke="#000" rx="99.97" ry="18"/>
            <text x="135.83" y="-300.95" font-family="Times,serif" font-size="14" text-anchor="middle">:feature:login-employee</text>
        </g>
        <g stroke="red" stroke-width="2" class="edge">
            <path fill="none" d="M139.83 112.3v24.16"/>
            <path fill="red" d="m143.33 134.87-3.5 10-3.5-10h7z"/>
        </g>
        <g stroke="#000" class="edge">
            <path fill="none" d="M1396.81 178.57c-8.96 1.93-18.23 3.82-26.98 5.43-109.66 20.22-239.37 37.94-308.27 46.86"/>
            <path d="m1062.1 234.32-10.37-2.19 9.47-4.75.9 6.94z"/>
        </g>
        <g stroke="#000" class="edge">
            <path fill="none" d="M1396.74 178.52c-52.77 12.31-132.27 31.42-161.91 41.48-38.08 12.92-44.62 24.02-83 36-18.45 5.76-122.37 25.8-194.97 39.52"/>
            <path d="m957.9 298.89-10.48-1.59 9.18-5.29 1.3 6.88z"/>
        </g>
        <g stroke="#000" class="edge">
            <path fill="none" d="M1413.36 182.02c-24.13 10.82-56.8 25.49-82.34 36.95"/>
            <path d="m1332.49 222.14-10.56.9 7.69-7.28 2.87 6.38z"/>
        </g>
        <g stroke="#000" class="edge">
            <path fill="none" d="M1583.68 176.26c-19.26 2.63-40.39 5.41-59.85 7.74-169.04 20.26-370.1 39.77-461.45 48.39"/>
            <path d="m1062.81 235.86-10.29-2.54 9.63-4.42.66 6.96z"/>
        </g>
        <g stroke="#000" class="edge">
            <path fill="none" d="M1592.9 178.81c-43.09 9.61-103.91 24.32-156.07 41.19-40.99 13.25-48.14 25.82-90 36-160.97 39.16-206.98 12.77-371 36-6.71.95-13.67 2.05-20.63 3.22"/>
            <path d="m955.88 298.65-10.46-1.73 9.26-5.16 1.2 6.89z"/>
        </g>
        <g stroke="#000" class="edge">
            <path fill="none" d="M1589.45 178.01c-10.85 2-22.08 4.07-32.62 5.99-88.85 16.21-111.77 16.72-200 36-5.64 1.23-11.52 2.61-17.35 4.04"/>
            <path d="m1340.43 227.41-10.55-.97 8.85-5.82 1.7 6.79z"/>
        </g>
        <g stroke="#000" class="edge">
            <path fill="none" d="M598.96 178.61c10.62 1.88 21.55 3.74 31.87 5.39 119.55 19.1 260.8 37.66 333.45 46.91"/>
            <path d="m964.36 227.4 9.48 4.73-10.36 2.21.88-6.94z"/>
        </g>
        <g stroke="#000" class="edge">
            <path fill="none" d="M574.73 182.47c63.76 26.01 192.33 78.47 262.22 106.99"/>
            <path d="m837.9 286.07 7.93 7.02-10.58-.54 2.65-6.48z"/>
        </g>
        <g stroke="#000" class="edge">
            <path fill="none" d="M597.62 178.9c11.02 1.9 22.44 3.7 33.21 5.1 58.95 7.68 453.57 37.55 602.9 48.74"/>
            <path d="m1233.67 229.23 9.71 4.23-10.24 2.75.53-6.98z"/>
        </g>
        <g stroke="#000" class="edge">
            <path fill="none" d="M769.41 179.43c56.33 13.33 144.83 34.26 198.17 46.87"/>
            <path d="m968.33 222.88 8.92 5.71-10.53 1.1 1.61-6.81z"/>
        </g>
        <g stroke="#000" class="edge">
            <path fill="none" d="M736.76 183.85c29.68 25.08 85.64 72.38 119.61 101.1"/>
            <path d="m858.39 282.07 5.38 9.13-9.9-3.78 4.52-5.35z"/>
        </g>
        <g stroke="#000" class="edge">
            <path fill="none" d="M772.03 178.78c9.89 1.9 20.13 3.73 29.8 5.22 155.4 23.91 340.22 40.84 431.75 48.47"/>
            <path d="m1233.62 228.96 9.68 4.31-10.26 2.66.58-6.97z"/>
        </g>
        <g stroke="#000" class="edge">
            <path fill="none" d="M900.15 181.85c22.33 10.92 52.78 25.83 76.39 37.39"/>
            <path d="m978.06 216.08 7.44 7.54-10.52-1.25 3.08-6.29z"/>
        </g>
        <g stroke="#000" class="edge">
            <path fill="none" d="M871.67 184.41c2.53 23.98 7.12 67.45 10.16 96.17"/>
            <path d="m885.29 280.07-2.43 10.31-4.53-9.57 6.96-.74z"/>
        </g>
        <g stroke="#000" class="edge">
            <path fill="none" d="M913.22 178.51c8.14 1.97 16.61 3.89 24.61 5.49 104.2 20.8 227.16 37.51 297.02 46.28"/>
            <path d="m1235.02 226.78 9.49 4.7-10.36 2.24.87-6.94z"/>
        </g>
        <g stroke="#000" class="edge">
            <path fill="none" d="M1764.8 178.94c-9.58 1.93-19.55 3.73-28.97 5.06-221.04 31.28-278.37 19.48-501 36-59.22 4.4-127.31 9.64-172.3 13.13"/>
            <path d="m1063.07 236.6-10.24-2.72 9.7-4.26.54 6.98z"/>
        </g>
        <g stroke="#000" class="edge">
            <path fill="none" d="M1763.42 178.61c-9.18 1.9-18.65 3.77-27.59 5.39-106.14 19.22-135.9 7.78-240 36-41.58 11.27-48.08 26.09-90 36-186.64 44.1-239.94 10.36-430 36-6.9.93-14.07 2.03-21.22 3.22"/>
            <path d="m955.37 298.64-10.45-1.75 9.26-5.15 1.19 6.9z"/>
        </g>
        <g stroke="#000" class="edge">
            <path fill="none" d="M1763.89 178.75c-9.32 1.91-18.96 3.74-28.06 5.25-18.95 3.13-273.44 32.97-388.82 46.45"/>
            <path d="m1347.47 233.92-10.34-2.32 9.53-4.64.81 6.96z"/>
        </g>
        <g stroke="#000" class="edge">
            <path fill="none" d="M1012.83 184.3v24.16"/>
            <path d="m1016.33 208.38-3.5 10-3.5-10h7z"/>
        </g>
        <g stroke="#000" class="edge">
            <path fill="none" d="M997.68 183.69c-9.46 10.43-21.88 24.14-32.85 36.31a34092.31 34092.31 0 0 0-57.34 63.74"/>
            <path d="m910.44 285.69-9.28 5.1 4.07-9.78 5.21 4.68z"/>
        </g>
        <g stroke="#000" class="edge">
            <path fill="none" d="M1060.3 178.95c50.32 12.67 129.44 32.6 180.65 45.49"/>
            <path d="m1241.76 221.03 8.84 5.84-10.55.95 1.71-6.79z"/>
        </g>
        <g stroke="#000" class="edge">
            <path fill="none" d="M1123.48 181.67c-21.83 10.92-51.74 25.87-74.96 37.48"/>
            <path d="m1050.24 222.21-10.51 1.34 7.38-7.6 3.13 6.26z"/>
        </g>
        <g stroke="#000" class="edge">
            <path fill="none" d="M1139.69 183.91c-16.4 20-46.28 52.97-78.86 72.09-31.53 18.5-70.08 31.06-103.06 39.28"/>
            <path d="m958.83 298.63-10.54-1.07 8.91-5.74 1.63 6.81z"/>
        </g>
        <g stroke="#000" class="edge">
            <path fill="none" d="M1181.76 181.67c20.74 10.53 48.87 24.8 71.37 36.21"/>
            <path d="m1254.66 214.73 7.34 7.65-10.5-1.41 3.16-6.24z"/>
        </g>
        <g stroke="#000" class="edge">
            <path fill="none" d="M1953.78 176.35c-18.38 2.84-39.01 5.71-57.95 7.65-292.69 29.92-367.42 16.77-661 36-59.26 3.88-127.34 9.23-172.32 12.88"/>
            <path d="m1063.07 236.35-10.25-2.68 9.68-4.3.57 6.98z"/>
        </g>
        <g stroke="#000" class="edge">
            <path fill="none" d="M1959.49 178.43c-10.1 2.07-20.7 4.06-30.66 5.57-171.66 26.09-221.66-10.3-389 36-35.64 9.86-39.28 26.48-75 36-210.57 56.13-272.89 7.95-489 36-6.91.9-14.08 1.98-21.23 3.15"/>
            <path d="m955.36 298.57-10.45-1.76 9.27-5.14 1.18 6.9z"/>
        </g>
        <g stroke="#000" class="edge">
            <path fill="none" d="M1959.93 178.42c-10.24 2.1-20.99 4.09-31.1 5.58-.9.13-424.16 35.26-580.7 48.25"/>
            <path d="m1348.66 235.71-10.26-2.66 9.68-4.31.58 6.97z"/>
        </g>
        <g class="node" transform="translate(4 472)">
            <ellipse cx="1600.83" cy="-234" fill="none" stroke="#000" rx="56.47" ry="18"/>
            <text x="1600.83" y="-228.95" font-family="Times,serif" font-size="14" text-anchor="middle">:core:printer</text>
        </g>
        <g stroke="#000" class="edge">
            <path fill="none" d="M1958.54 178.06c-9.83 2.06-20.08 4.13-29.71 5.94-91.03 17.11-197.04 33.85-262.33 43.8"/>
            <path d="m1667.1 231.25-10.42-1.96 9.37-4.96 1.05 6.92z"/>
        </g>
        <g stroke="#000" class="edge">
            <path fill="none" d="M378.03 178.44c10.48 2.07 21.46 4.05 31.8 5.56 203.77 29.72 448.88 45 552.66 50.53"/>
            <path d="m962.53 231.02 9.81 4.02-10.17 2.97.36-6.99z"/>
        </g>
        <g stroke="#000" class="edge">
            <path fill="none" d="M373.5 179.62c65.13 17.54 187.03 50.09 291.33 76.38 51.86 13.07 110.79 27.23 154.59 37.62"/>
            <path d="m820.11 290.19 8.92 5.71-10.54 1.1 1.62-6.81z"/>
        </g>
        <g stroke="#000" class="edge">
            <path fill="none" d="M383.94 176.38c18.72 2.81 39.65 5.65 58.89 7.62 273.7 27.97 343.46 17.86 618 36 58.93 3.89 126.3 8.94 172.83 12.53"/>
            <path d="m1233.81 229.03 9.7 4.26-10.24 2.72.54-6.98z"/>
        </g>
        <g stroke="#000" class="edge">
            <path fill="none" d="M1245.84 178.95c-52.75 13.15-136.83 34.09-188.26 46.9"/>
            <path d="m1058.52 229.23-10.55-.98 8.85-5.82 1.7 6.8z"/>
        </g>
        <g stroke="#000" class="edge">
            <path fill="none" d="M1262.05 182.2c-47 22.33-132.97 62.58-165.22 73.8-46.28 16.09-99.83 29.44-141.53 38.71"/>
            <path d="m956.14 298.11-10.51-1.27 9.01-5.57 1.5 6.84z"/>
        </g>
        <g stroke="#000" class="edge">
            <path fill="none" d="M1293.09 184.3c-.32 7.29-.69 15.97-1.04 24.16"/>
            <path d="m1295.55 208.54-3.92 9.84-3.07-10.14 6.99.3z"/>
        </g>
        <g stroke="#000" class="edge">
            <path fill="none" d="M988.45 252.33c-18.08 9.89-43.11 23.58-64.04 35.02"/>
            <path d="m926.29 290.31-10.45 1.73 7.1-7.87 3.35 6.14z"/>
        </g>
        <g class="node" transform="translate(4 472)">
            <ellipse cx="1045.83" cy="-162" fill="none" stroke="#000" rx="64.66" ry="18"/>
            <text x="1045.83" y="-156.95" font-family="Times,serif" font-size="14" text-anchor="middle">:core:analytics</text>
        </g>
        <g stroke="#000" class="edge">
            <path fill="none" d="M1021.78 255.95c4.08 7.7 9 17.02 13.58 25.69"/>
            <path d="m1038.41 279.91 1.58 10.48-7.77-7.21 6.19-3.27z"/>
        </g>
        <g class="node" transform="translate(4 472)">
            <ellipse cx="1235.83" cy="-18" fill="none" stroke="#000" rx="55.45" ry="18"/>
            <text x="1235.83" y="-12.95" font-family="Times,serif" font-size="14" text-anchor="middle">:core:model</text>
        </g>
        <g stroke="#000" class="edge">
            <path fill="none" d="M1045.96 247.94c24.28 8.03 56.58 22.02 77.87 44.06 36.36 37.66 14.77 66.75 47 108 9.32 11.93 21.91 22.64 33.79 31.26"/>
            <path d="m1206.45 428.27 6.23 8.57-10.22-2.82 3.99-5.75z"/>
        </g>
        <g class="node" transform="translate(4 472)">
            <ellipse cx="1235.83" cy="-90" fill="none" stroke="#000" rx="60.05" ry="18"/>
            <text x="1235.83" y="-84.95" font-family="Times,serif" font-size="14" text-anchor="middle">:core:domain</text>
        </g>
        <g stroke="#000" class="edge">
            <path fill="none" d="M1284.68 256.13c-8.66 24.09-24.52 68.27-34.88 97.1"/>
            <path d="m1253.19 354.16-6.68 8.23.09-10.6 6.59 2.37z"/>
        </g>
        <g class="node" transform="translate(4 472)">
            <ellipse cx="1570.83" cy="-18" fill="none" stroke="#000" rx="65.17" ry="18"/>
            <text x="1570.83" y="-12.95" font-family="Times,serif" font-size="14" text-anchor="middle">:core:common</text>
        </g>
        <g stroke="#000" class="edge">
            <path fill="none" d="M1303.93 255.44c16.62 19.83 47.09 52.96 79.9 72.56 44.52 26.6 67.51 7.75 111 36 1.8 1.17 34.63 37.94 57.67 63.85"/>
            <path d="m1554.85 425.22 4.02 9.8-9.26-5.15 5.24-4.65z"/>
        </g>
        <g class="node" transform="translate(4 472)">
            <ellipse cx="1416.83" cy="-90" fill="none" stroke="#000" rx="65.17" ry="18"/>
            <text x="1416.83" y="-84.95" font-family="Times,serif" font-size="14" text-anchor="middle">:core:datastore</text>
        </g>
        <g stroke="#000" class="edge">
            <path fill="none" d="M1290.91 256.29c.96 19.45 5.24 51.02 21.92 71.71 13.38 16.6 33.27 28.39 52.34 36.57"/>
            <path d="m1366.24 361.22 7.99 6.96-10.59-.45 2.6-6.51z"/>
        </g>
        <g class="node" transform="translate(4 472)">
            <ellipse cx="1482.83" cy="-162" fill="none" stroke="#000" rx="93.83" ry="18"/>
            <text x="1482.83" y="-156.95" font-family="Times,serif" font-size="14" text-anchor="middle">:core:firebase-services</text>
        </g>
        <g stroke="red" stroke-width="2" class="edge">
            <path fill="none" d="M1324.52 251.03c29.86 10.67 73.97 26.42 108.68 38.82"/>
            <path fill="red" d="m1432.55 285.9 8.24 6.66-10.6-.07 2.36-6.59z"/>
        </g>
        <g stroke="#000" class="edge">
            <path fill="none" d="M210.95 178.99c12.59 1.87 25.6 3.63 37.88 5.01 268.15 30.16 591.31 45.81 713.72 51"/>
            <path d="m962.4 231.49 9.85 3.92-10.14 3.08.29-7z"/>
        </g>
        <g stroke="#000" class="edge">
            <path fill="none" d="M194.87 181.36c73.96 18.94 209.7 52.46 326.96 74.64 96.13 18.18 207.6 33.63 281.38 43.07"/>
            <path d="m803.29 295.56 9.48 4.73-10.36 2.21.88-6.94z"/>
        </g>
        <g stroke="red" stroke-width="2" class="edge">
            <path fill="none" d="M210.34 179.16c12.77 1.87 26 3.59 38.49 4.84 359.45 35.89 451.38 14.68 812 36 58.95 3.48 126.33 8.6 172.84 12.31"/>
            <path fill="red" d="m1232.33 228.69 9.69 4.28-10.25 2.69.56-6.97z"/>
        </g>
        <g stroke="#000" class="edge">
            <path fill="none" d="M1239.83 400.3v24.16"/>
            <path d="m1243.33 424.38-3.5 10-3.5-10h7z"/>
        </g>
        <g stroke="red" stroke-width="2" class="edge">
            <path fill="none" d="M1384.2 397.17c-28.65 11.07-68.61 26.53-99.23 38.37"/>
            <path fill="red" d="m1287.97 438.13-10.59.35 8.07-6.88 2.52 6.53z"/>
        </g>
        <g stroke="#000" class="edge">
            <path fill="none" d="M1453.49 397.85c22.79 10.35 53.44 24.29 78.23 35.56"/>
            <path d="m1532.92 430.11 7.65 7.32-10.55-.95 2.9-6.37z"/>
        </g>
        <g class="node" transform="translate(4 472)">
            <ellipse cx="1398.83" cy="-18" fill="none" stroke="#000" rx="89.23" ry="18"/>
            <text x="1398.83" y="-12.95" font-family="Times,serif" font-size="14" text-anchor="middle">:core:datastore_proto</text>
        </g>
        <g stroke="#000" class="edge">
            <path fill="none" d="M1416.38 400.3c-1.9 7.38-4.16 16.18-6.29 24.45"/>
            <path d="m1413.48 425.62-5.88 8.81-.9-10.56 6.78 1.75z"/>
        </g>
        <g stroke="#000" class="edge">
            <path fill="none" d="M1501.28 328.11c8.24 10.12 18.49 23.37 26.55 35.89 12.77 19.83 25.14 43.49 33.98 61.43"/>
            <path d="m1564.95 423.89 1.22 10.53-7.51-7.47 6.29-3.06z"/>
        </g>
        <g stroke="red" stroke-width="2" class="edge">
            <path fill="none" d="m1470.85 327.95-26.48 28.08"/>
            <path fill="red" d="m1448.14 357.13-9.41 4.88 4.32-9.68 5.09 4.8z"/>
        </g>
        <g stroke="#000" class="edge">
            <path fill="none" d="M1557.77 248.42c-60.53 12.41-159.61 33.78-173.94 43.58-48.25 32.98-34.68 65.7-75 108-10.69 11.22-23.89 21.95-35.88 30.79"/>
            <path d="m1275.07 433.58-10.17 2.99 6.09-8.67 4.08 5.68z"/>
        </g>
        <g stroke="#000" class="edge">
            <path fill="none" d="M1602.42 256.15c-5.14 36.71-17.27 123.19-23.59 168.32"/>
            <path d="m1582.31 424.85-4.86 9.42-2.07-10.39 6.93.97z"/>
        </g>
        <g stroke="#000" class="edge">
            <path fill="none" d="M1578.93 254.36c-16.03 9.51-36.87 21.88-54.68 32.44"/>
            <path d="m1526.41 289.59-10.39 2.09 6.82-8.11 3.57 6.02z"/>
        </g>
    </g>
</svg>
