<svg xmlns="http://www.w3.org/2000/svg" width="464pt" height="260pt" viewBox="0 0 463.62 260">
    <g class="graph">
        <path fill="#fff" d="M0 260V0h463.62v260H0z"/>
        <g class="node" transform="translate(4 256)">
            <ellipse cx="207.45" cy="-234" fill="none" stroke="#000" rx="47.26" ry="18"/>
            <text x="207.45" y="-228.95" font-family="Times,serif" font-size="14" text-anchor="middle">:core:data</text>
        </g>
        <g class="node" transform="translate(4 256)">
            <ellipse cx="65.45" cy="-90" fill="none" stroke="#000" rx="60.05" ry="18"/>
            <text x="65.45" y="-84.95" font-family="Times,serif" font-size="14" text-anchor="middle">:core:domain</text>
        </g>
        <g stroke="#000" class="edge">
            <path fill="none" d="M195.16 39.29 93.99 140.46"/>
            <path d="m96.6 142.8-9.55 4.59 4.6-9.54 4.95 4.95z"/>
        </g>
        <g class="node" transform="translate(4 256)">
            <ellipse cx="390.45" cy="-18" fill="none" stroke="#000" rx="65.17" ry="18"/>
            <text x="390.45" y="-12.95" font-family="Times,serif" font-size="14" text-anchor="middle">:core:common</text>
        </g>
        <g stroke="#000" class="edge">
            <path fill="none" d="M258.23 24.94c37.66 4.23 88.82 16.5 117.22 51.06 30.69 37.35 28.75 97.05 24.15 132.3"/>
            <path d="m403.06 208.8-4.93 9.38-1.99-10.41 6.92 1.03z"/>
        </g>
        <g class="node" transform="translate(4 256)">
            <ellipse cx="218.45" cy="-90" fill="none" stroke="#000" rx="65.17" ry="18"/>
            <text x="218.45" y="-84.95" font-family="Times,serif" font-size="14" text-anchor="middle">:core:datastore</text>
        </g>
        <g stroke="#000" class="edge">
            <path fill="none" d="M194.15 38.86c-9.26 9.7-19.76 22.95-24.7 37.14-5.27 15.11-6.13 21.22 0 36 4.59 11.09 12.75 21.07 21.32 29.3"/>
            <path d="m193.07 138.66 5.15 9.26-9.8-4.03 4.65-5.23z"/>
        </g>
        <g class="node" transform="translate(4 256)">
            <ellipse cx="268.45" cy="-162" fill="none" stroke="#000" rx="93.83" ry="18"/>
            <text x="268.45" y="-156.95" font-family="Times,serif" font-size="14" text-anchor="middle">:core:firebase-services</text>
        </g>
        <g stroke="red" stroke-width="2" class="edge">
            <path fill="none" d="M225.9 39.59c7.26 8.33 16.22 18.61 24.33 27.92"/>
            <path fill="red" d="m251.75 63.92 3.93 9.84-9.21-5.24 5.28-4.6z"/>
        </g>
        <g class="node" transform="translate(4 256)">
            <ellipse cx="55.45" cy="-18" fill="none" stroke="#000" rx="55.45" ry="18"/>
            <text x="55.45" y="-12.95" font-family="Times,serif" font-size="14" text-anchor="middle">:core:model</text>
        </g>
        <g stroke="#000" class="edge">
            <path fill="none" d="M66.97 184.3c-1.05 7.38-2.31 16.18-3.49 24.45"/>
            <path d="m66.98 208.99-4.88 9.41-2.05-10.4 6.93.99z"/>
        </g>
        <g stroke="#000" class="edge">
            <path fill="none" d="M258.08 181.5c26.18 10.66 61.97 25.22 90.31 36.76"/>
            <path d="m349.51 214.93 7.94 7.01-10.58-.52 2.64-6.49z"/>
        </g>
        <g stroke="red" stroke-width="2" class="edge">
            <path fill="none" d="M188.28 181.67c-25.06 10.76-59.24 25.44-86.1 36.98"/>
            <path fill="red" d="m105.26 221.14-10.57.73 7.8-7.17 2.77 6.44z"/>
        </g>
        <g class="node" transform="translate(4 256)">
            <ellipse cx="218.45" cy="-18" fill="none" stroke="#000" rx="89.23" ry="18"/>
            <text x="218.45" y="-12.95" font-family="Times,serif" font-size="14" text-anchor="middle">:core:datastore_proto</text>
        </g>
        <g stroke="#000" class="edge">
            <path fill="none" d="M222.45 184.3v24.16"/>
            <path d="m225.95 208.38-3.5 10-3.5-10h7z"/>
        </g>
        <g stroke="#000" class="edge">
            <path fill="none" d="M287.16 112.13c21.28 24.76 60.77 70.73 85.45 99.45"/>
            <path d="m375.21 209.24 3.86 9.86-9.17-5.3 5.31-4.56z"/>
        </g>
        <g stroke="red" stroke-width="2" class="edge">
            <path fill="none" d="M260.09 112.3c-5.7 7.97-12.57 17.6-18.88 26.44"/>
            <path fill="red" d="m245.08 139.33-8.66 6.1 2.97-10.17 5.69 4.07z"/>
        </g>
    </g>
</svg>
