<svg xmlns="http://www.w3.org/2000/svg" width="734pt" height="332pt" viewBox="0 0 734.13 332">
    <g class="graph">
        <path fill="#fff" stroke="transparent" d="M0 332V0h734.13v332z" />
        <g class="node" transform="translate(4 328)">
            <ellipse cx="215.74" cy="-306" fill="none" stroke="#000" rx="68.79" ry="18" />
            <text x="215.74" y="-302.3" font-family="Times,serif" font-size="14"
                text-anchor="middle">:feature:sale
            </text>
        </g>
        <g class="node" transform="translate(4 328)">
            <ellipse cx="215.74" cy="-234" fill="none" stroke="#000" rx="45.49" ry="18" />
            <text x="215.74" y="-230.3" font-family="Times,serif" font-size="14"
                text-anchor="middle">:core:ui
            </text>
        </g>
        <g stroke="#000" class="edge">
            <path fill="none" d="M219.74 40.3v25.59" />
            <path d="m223.24 65.9-3.5 10-3.5-10z" />
        </g>
        <g class="node" transform="translate(4 328)">
            <ellipse cx="100.74" cy="-162" fill="none" stroke="#000" rx="100.98" ry="18" />
            <text x="100.74" y="-158.3" font-family="Times,serif" font-size="14"
                text-anchor="middle">:core:designsystem
            </text>
        </g>
        <g stroke="#000" class="edge">
            <path fill="none"
                d="M201.35 39.37C190.47 49.45 176.71 62.91 165.74 76c-16.89 20.14-33.58 44.93-45.23 63.23" />
            <path d="m123.35 141.29-8.28 6.61 2.35-10.33z" />
        </g>
        <g class="node" transform="translate(4 328)">
            <ellipse cx="366.74" cy="-234" fill="none" stroke="#000" rx="57.39" ry="18" />
            <text x="366.74" y="-230.3" font-family="Times,serif" font-size="14"
                text-anchor="middle">:core:data
            </text>
        </g>
        <g stroke="red" stroke-width="2" class="edge">
            <path fill="none" d="M252.13 38.02c22.96 10.64 53.9 24.98 78.42 36.35" />
            <path fill="red" d="m332.35 71.34 7.6 7.39-10.55-1.04z" />
        </g>
        <g stroke="#000" class="edge">
            <path fill="none" d="M195.91 109.5c-16.05 9.78-37.52 22.84-55.59 33.84" />
            <path d="m142.12 146.34-10.36 2.21 6.72-8.19z" />
        </g>
        <g class="node" transform="translate(4 328)">
            <ellipse cx="253.74" cy="-18" fill="none" stroke="#000" rx="64.99" ry="18" />
            <text x="253.74" y="-14.3" font-family="Times,serif" font-size="14"
                text-anchor="middle">:core:model
            </text>
        </g>
        <g stroke="#000" class="edge">
            <path fill="none" d="M222.79 112.15c6.58 37.1 22.2 125.04 30.14 169.75" />
            <path d="m256.38 281.31-1.7 10.46-5.19-9.24z" />
        </g>
        <g class="node" transform="translate(4 328)">
            <ellipse cx="328.74" cy="-90" fill="none" stroke="#000" rx="70.69" ry="18"/>
            <text x="328.74" y="-86.3" font-family="Times,serif" font-size="14" text-anchor="middle">:core:domain</text>
        </g>
        <g stroke="#000" class="edge">
            <path fill="none" d="M366.16 112.13c-6.51 24.31-18.48 69.05-26.19 97.86" />
            <path d="m343.31 211.06-5.97 8.75-.79-10.56z" />
        </g>
        <g class="node" transform="translate(4 328)">
            <ellipse cx="650.74" cy="-18" fill="none" stroke="#000" rx="75.29" ry="18" />
            <text x="650.74" y="-14.3" font-family="Times,serif" font-size="14"
                text-anchor="middle">:core:common
            </text>
        </g>
        <g stroke="#000" class="edge">
            <path fill="none"
                d="M426.07 98.57c69.19 5.69 181.94 19.39 209.67 49.43 33.39 36.17 30.02 98.07 24.54 133.66" />
            <path d="m663.68 282.53-5.13 9.27-1.77-10.45z" />
        </g>
        <g class="node" transform="translate(4 328)">
            <ellipse cx="498.74" cy="-90" fill="none" stroke="#000" rx="81.49" ry="18"/>
            <text x="498.74" y="-86.3" font-family="Times,serif" font-size="14" text-anchor="middle">:core:datastore</text>
        </g>
        <g stroke="#000" class="edge">
            <path fill="none"
                d="M370.08 112.3c.16 19.46 3.25 51.04 19.66 71.7 13.2 16.62 32.85 28.28 52.08 36.35" />
            <path d="m443.16 217.11 8.03 6.91-10.59-.39z" />
        </g>
        <g class="node" transform="translate(4 328)">
            <ellipse cx="508.74" cy="-162" fill="none" stroke="#000" rx="114.28" ry="18" />
            <text x="508.74" y="-158.3" font-family="Times,serif" font-size="14"
                text-anchor="middle">:core:firebase-services
            </text>
        </g>
        <g stroke="red" stroke-width="2" class="edge">
            <path fill="none" d="M400.16 109.5c20.35 10.04 47.74 23.53 70.4 34.71" />
            <path fill="red" d="m472.21 141.12 7.42 7.56-10.52-1.29z" />
        </g>
        <g stroke="#000" class="edge">
            <path fill="none" d="M314.97 255.59c-9.62 8.98-21.67 20.22-32.22 30.07" />
            <path d="m285.09 288.27-9.7 4.26 4.92-9.38z" />
        </g>
        <g stroke="red" stroke-width="2" class="edge">
            <path fill="none" d="M454.92 252.66c-41.34 11.81-101.03 28.87-143.9 41.12" />
            <path fill="red" d="m311.91 297.16-10.58-.61 8.65-6.12z" />
        </g>
        <g stroke="#000" class="edge">
            <path fill="none" d="M536.47 254.54c22.4 10.31 51.97 23.92 75.93 34.96" />
            <path d="m614.01 286.39 7.61 7.36-10.54-1z" />
        </g>
        <g class="node" transform="translate(4 328)">
            <ellipse cx="446.74" cy="-18" fill="none" stroke="#000" rx="110.48" ry="18" />
            <text x="446.74" y="-14.3" font-family="Times,serif" font-size="14"
                text-anchor="middle">:core:datastore_proto
            </text>
        </g>
        <g stroke="#000" class="edge">
            <path fill="none" d="M490.15 255.95c-6.16 8.3-13.72 18.47-20.56 27.67" />
            <path d="m472.35 285.78-8.78 5.94 3.16-10.11z" />
        </g>
        <g stroke="#000" class="edge">
            <path fill="none"
                d="M543.21 183.46c15.83 9.43 34.87 22.22 49.53 36.54 19.22 18.77 36.27 44.26 47.6 63.15" />
            <path d="m643.4 281.44 2.03 10.39-8.07-6.85z" />
        </g>
        <g stroke="red" stroke-width="2" class="edge">
            <path fill="none" d="M510.27 184.3c-1.1 7.72-2.43 16.99-3.66 25.59" />
            <path fill="red" d="m510.06 210.49-4.88 9.41-2.05-10.4z" />
        </g>
    </g>
</svg>
