<svg xmlns="http://www.w3.org/2000/svg" width="808pt" height="332pt" viewBox="0 0 808.13 332">
    <g class="graph">
        <path fill="#fff" stroke="transparent" d="M0 332V0h808.13v332z" />
        <g class="node" transform="translate(4 328)">
            <ellipse cx="296.74" cy="-306" fill="none" stroke="#000" rx="83.39" ry="18" />
            <text x="296.74" y="-302.3" font-family="Times,serif" font-size="14"
                text-anchor="middle">:feature:setting
            </text>
        </g>
        <g class="node" transform="translate(4 328)">
            <ellipse cx="229.74" cy="-234" fill="none" stroke="#000" rx="45.49" ry="18" />
            <text x="229.74" y="-230.3" font-family="Times,serif" font-size="14"
                text-anchor="middle">:core:ui
            </text>
        </g>
        <g stroke="#000" class="edge">
            <path fill="none" d="M284.52 39.95c-8.43 8.81-18.88 19.72-28.1 29.36" />
            <path d="m258.79 71.89-9.44 4.8 4.39-9.64z" />
        </g>
        <g class="node" transform="translate(4 328)">
            <ellipse cx="100.74" cy="-162" fill="none" stroke="#000" rx="100.98" ry="18" />
            <text x="100.74" y="-158.3" font-family="Times,serif" font-size="14"
                text-anchor="middle">:core:designsystem
            </text>
        </g>
        <g stroke="#000" class="edge">
            <path fill="none"
                d="M255.58 37.17c-23.96 8.84-53.06 21.81-75.84 38.83-23.58 17.62-44.61 44.01-58.36 63.48" />
            <path d="m124.15 141.63-8.55 6.25 2.78-10.22z" />
        </g>
        <g class="node" transform="translate(4 328)">
            <ellipse cx="364.74" cy="-234" fill="none" stroke="#000" rx="57.39" ry="18" />
            <text x="364.74" y="-230.3" font-family="Times,serif" font-size="14"
                text-anchor="middle">:core:data
            </text>
        </g>
        <g stroke="red" stroke-width="2" class="edge">
            <path fill="none" d="M317.2 39.95c8.56 8.81 19.16 19.72 28.52 29.36" />
            <path fill="red" d="m348.44 67.08 4.46 9.61-9.48-4.73z" />
        </g>
        <g class="node" transform="translate(4 328)">
            <ellipse cx="545.74" cy="-234" fill="none" stroke="#000" rx="69.59" ry="18" />
            <text x="545.74" y="-230.3" font-family="Times,serif" font-size="14"
                text-anchor="middle">:core:printer
            </text>
        </g>
        <g stroke="#000" class="edge">
            <path fill="none" d="m349.34 36.66 145.02 40.77" />
            <path d="m495.52 74.12 8.68 6.08-10.57.66z" />
        </g>
        <g stroke="#000" class="edge">
            <path fill="none" d="M207.95 109c-18.32 9.94-43.25 23.46-64.02 34.73" />
            <path d="m145.48 146.87-10.46 1.7 7.12-7.85z" />
        </g>
        <g class="node" transform="translate(4 328)">
            <ellipse cx="327.74" cy="-18" fill="none" stroke="#000" rx="64.99" ry="18" />
            <text x="327.74" y="-14.3" font-family="Times,serif" font-size="14"
                text-anchor="middle">:core:model
            </text>
        </g>
        <g stroke="#000" class="edge">
            <path fill="none"
                d="M231.37 112c-3.44 31.09-6.67 98.13 21.37 144 8.55 13.99 22.35 25.1 36.04 33.45" />
            <path d="m290.75 286.55 6.95 8-10.42-1.92z" />
        </g>
        <g class="node" transform="translate(4 328)">
            <ellipse cx="328.74" cy="-90" fill="none" stroke="#000" rx="70.69" ry="18" />
            <text x="328.74" y="-86.3" font-family="Times,serif" font-size="14"
                text-anchor="middle">:core:domain
            </text>
        </g>
        <g stroke="#000" class="edge">
            <path fill="none"
                d="M364.13 112.17c-2.76 10.36-6.32 23.84-9.39 35.83-5.29 20.69-11.08 44.13-15.39 61.77" />
            <path d="m342.65 211.03-5.77 8.89-1.03-10.55z" />
        </g>
        <g class="node" transform="translate(4 328)">
            <ellipse cx="724.74" cy="-18" fill="none" stroke="#000" rx="75.29" ry="18" />
            <text x="724.74" y="-14.3" font-family="Times,serif" font-size="14"
                text-anchor="middle">:core:common
            </text>
        </g>
        <g stroke="#000" class="edge">
            <path fill="none"
                d="M381.59 111.63c16.67 20.36 47.72 54.33 82.15 72.37 67.26 35.23 101.13-1.77 167 36 18.83 10.8 17.22 21.1 33 36 11.08 10.45 23.96 21.21 35.31 30.29" />
            <path d="m701.33 283.62 5.68 8.94-10.02-3.45z" />
        </g>
        <g class="node" transform="translate(4 328)">
            <ellipse cx="536.74" cy="-90" fill="none" stroke="#000" rx="81.49" ry="18" />
            <text x="536.74" y="-86.3" font-family="Times,serif" font-size="14"
                text-anchor="middle">:core:datastore
            </text>
        </g>
        <g stroke="#000" class="edge">
            <path fill="none"
                d="M368.84 112.31c1.03 19.78 5.67 51.93 23.9 71.69 18.79 20.37 45.96 32.91 71.9 40.64" />
            <path d="m465.8 221.33 8.7 6.04-10.57.71z" />
        </g>
        <g class="node" transform="translate(4 328)">
            <ellipse cx="582.74" cy="-162" fill="none" stroke="#000" rx="114.28" ry="18" />
            <text x="582.74" y="-158.3" font-family="Times,serif" font-size="14"
                text-anchor="middle">:core:firebase-services
            </text>
        </g>
        <g stroke="red" stroke-width="2" class="edge">
            <path fill="none" d="M407.21 107.35c33.81 10.86 83.47 26.81 122 39.18" />
            <path fill="red" d="m530.3 143.2 8.45 6.39-10.59.28z" />
        </g>
        <g stroke="#000" class="edge">
            <path fill="none"
                d="M516.29 109.81c-17.42 9.04-38.05 21.98-52.55 38.19-35.39 39.56-16.15 67.96-51 108-11.42 13.12-26.85 24.3-41.18 32.95" />
            <path d="m373.24 292.03-10.41 1.99 6.9-8.05z" />
        </g>
        <g stroke="#000" class="edge">
            <path fill="none"
                d="M615.2 100.31c33.35 6.26 71.61 19.57 94.54 47.69 30.95 37.95 28.61 98.69 23.93 133.71" />
            <path d="m737.12 282.32-4.94 9.38-1.99-10.41z" />
        </g>
        <g stroke="#000" class="edge">
            <path fill="none" d="M558.7 111.95c4.25 8.04 9.43 17.85 14.18 26.82" />
            <path d="m576.03 137.25 1.58 10.47-7.77-7.2z" />
        </g>
        <g stroke="#000" class="edge">
            <path fill="none" d="M332.49 256.3c-.11 7.72-.24 16.99-.36 25.59" />
            <path d="m335.63 281.95-3.64 9.95-3.36-10.05z" />
        </g>
        <g stroke="red" stroke-width="2" class="edge">
            <path fill="none" d="M497.94 253.33c-33.84 11.34-81.13 27.18-116.61 39.06" />
            <path fill="red" d="m382.24 295.78-10.59-.15 8.37-6.49z" />
        </g>
        <g stroke="#000" class="edge">
            <path fill="none" d="M580.61 253.85c29.08 10.82 68.65 25.55 99.57 37.07" />
            <path d="m681.74 287.77 8.15 6.77-10.59-.21z" />
        </g>
        <g class="node" transform="translate(4 328)">
            <ellipse cx="520.74" cy="-18" fill="none" stroke="#000" rx="110.48" ry="18" />
            <text x="520.74" y="-14.3" font-family="Times,serif" font-size="14"
                text-anchor="middle">:core:datastore_proto
            </text>
        </g>
        <g stroke="#000" class="edge">
            <path fill="none" d="M536.79 256.3c-1.77 7.72-3.89 16.99-5.85 25.59" />
            <path d="m534.29 282.93-5.64 8.97-1.18-10.53z" />
        </g>
        <g stroke="#000" class="edge">
            <path fill="none"
                d="M615.54 183.55c15.26 9.55 33.77 22.42 48.2 36.45 19.57 19.03 37.51 44.49 49.57 63.3" />
            <path d="m716.38 281.61 2.35 10.33-8.28-6.61z" />
        </g>
        <g stroke="red" stroke-width="2" class="edge">
            <path fill="none" d="M575.61 183.95c-5.4 8.21-12.01 18.26-18.01 27.39" />
            <path fill="red" d="m560.51 213.29-8.42 6.43 2.57-10.27z" />
        </g>
    </g>
</svg>
