<svg xmlns="http://www.w3.org/2000/svg" width="545pt" height="260pt" viewBox="0 0 545.39 260">
    <g class="graph">
        <path fill="#fff" stroke="transparent" d="M0 260V0h545.39v260z" />
        <g class="node" transform="translate(4 256)">
            <ellipse cx="248.99" cy="-234" fill="none" stroke="#000" rx="57.39" ry="18" />
            <text x="248.99" y="-230.3" font-family="Times,serif" font-size="14"
                text-anchor="middle">:core:data
            </text>
        </g>
        <g class="node" transform="translate(4 256)">
            <ellipse cx="76.99" cy="-90" fill="none" stroke="#000" rx="70.69" ry="18"/>
            <text x="76.99" y="-86.3" font-family="Times,serif" font-size="14" text-anchor="middle">:core:domain</text>
        </g>
        <g stroke="#000" class="edge">
            <path fill="none" d="M233.6 39.01c-30.5 25.18-89.8 74.14-124.82 103.05" />
            <path d="m110.79 144.94-9.94 3.67 5.48-9.07z" />
        </g>
        <g class="node" transform="translate(4 256)">
            <ellipse cx="461.99" cy="-18" fill="none" stroke="#000" rx="75.29" ry="18"/>
            <text x="461.99" y="-14.3" font-family="Times,serif" font-size="14" text-anchor="middle">:core:common</text>
        </g>
        <g stroke="#000" class="edge">
            <path fill="none"
                d="M303.85 30.36C354.86 38.84 428.43 54.44 446.99 76c31.96 37.11 29.25 98.15 24.24 133.45" />
            <path d="m474.66 210.19-5.02 9.33-1.9-10.42z" />
        </g>
        <g class="node" transform="translate(4 256)">
            <ellipse cx="257.99" cy="-90" fill="none" stroke="#000" rx="81.49" ry="18"/>
            <text x="257.99" y="-86.3" font-family="Times,serif" font-size="14" text-anchor="middle">:core:datastore</text>
        </g>
        <g stroke="#000" class="edge">
            <path fill="none"
                d="M230.87 38.71C219.63 48.1 207.09 61.08 200.99 76c-6.05 14.81-6.63 21.44 0 36 5.51 12.09 15.29 22.48 25.43 30.79" />
            <path d="m228.72 140.14 5.83 8.85-10.07-3.28z" />
        </g>
        <g class="node" transform="translate(4 256)">
            <ellipse cx="319.99" cy="-162" fill="none" stroke="#000" rx="114.28" ry="18" />
            <text x="319.99" y="-158.3" font-family="Times,serif" font-size="14"
                text-anchor="middle">:core:firebase-services
            </text>
        </g>
        <g stroke="red" stroke-width="2" class="edge">
            <path fill="none" d="M269.82 39.59c8.89 8.76 19.96 19.68 29.77 29.35" />
            <path fill="red" d="m302.13 66.53 4.67 9.51-9.58-4.52z" />
        </g>
        <g class="node" transform="translate(4 256)">
            <ellipse cx="64.99" cy="-18" fill="none" stroke="#000" rx="64.99" ry="18"/>
            <text x="64.99" y="-14.3" font-family="Times,serif" font-size="14" text-anchor="middle">:core:model</text>
        </g>
        <g stroke="#000" class="edge">
            <path fill="none" d="M78.03 184.3c-1.32 7.72-2.91 16.99-4.39 25.59" />
            <path d="m77.07 210.63-5.14 9.27-1.76-10.45z" />
        </g>
        <g stroke="#000" class="edge">
            <path fill="none" d="M304.26 181.5c32.19 11.05 76.62 26.3 110.77 38.01" />
            <path d="m416.5 216.32 8.32 6.55-10.59.07z" />
        </g>
        <g stroke="red" stroke-width="2" class="edge">
            <path fill="none" d="M221.54 181.67c-30.66 11.12-72.85 26.43-105.1 38.12" />
            <path fill="red" d="m117.37 223.18-10.59.12 8.21-6.7z" />
        </g>
        <g class="node" transform="translate(4 256)">
            <ellipse cx="257.99" cy="-18" fill="none" stroke="#000" rx="110.48" ry="18"/>
            <text x="257.99" y="-14.3" font-family="Times,serif" font-size="14" text-anchor="middle">:core:datastore_proto</text>
        </g>
        <g stroke="#000" class="edge">
            <path fill="none" d="M261.99 184.3v25.59" />
            <path d="m265.49 209.9-3.5 10-3.5-10z" />
        </g>
        <g stroke="#000" class="edge">
            <path fill="none" d="M340.84 111.85c25.09 25.08 72.38 72.38 101.1 101.1" />
            <path d="m444.57 210.63 4.6 9.55-9.55-4.6z" />
        </g>
        <g stroke="red" stroke-width="2" class="edge">
            <path fill="none" d="M308.99 111.95c-7.62 8.59-17.01 19.19-25.39 28.65" />
            <path fill="red" d="m286.11 143.05-9.25 5.16 4.01-9.81z" />
        </g>
    </g>
</svg>
